<svg xmlns="http://www.w3.org/2000/svg" viewBox="-862.5 -952.62794416 1725 1905.25588833" width="722.33502" height="811.0144">
  <g>
    <path stroke="#000" fill="#E8EDF9" d="M100 0 50-87H-50l-50 87 50 87H50z"/>
    <path opacity=".15" fill="red" d="M100 0 50-87H-50l-50 87 50 87H50z"/>
    <g>
      <g>
        <path d="M-19.49296-38.471295c-.809025-2.222145-1.251315-4.6207-1.251315-7.119535 0-11.49954 9.32213-20.82167 20.82167-20.82167 11.49954 0 20.82167 9.32213 20.82167 20.82167 0 3.368465-.805 6.561555-2.23215 9.38492 2.053555.142025 4.049035 1.067315 5.503785 2.729985 7.90441 9.03348 14.821545 21.91371 14.821545 36.84301 0 10.67338-3.674595 18.582505-8.63995 24.281215l9.430575 1.65393c3.85043.675395 6.65988 4.019595 6.65988 7.92902V52.325c0 2.13555-.8487 4.18255-2.35865 5.6925-1.5088 1.50995-3.556835 2.3575-5.69181 2.3575H-38.2375c-4.4459 0-8.05-3.6041-8.05-8.05V37.23125c0-3.90494 2.802435-7.246725 6.64769-7.92695l8.50701-1.50489c-5.03309-5.70952-8.768865-13.66292-8.768865-24.432325 0-11.647775 4.513865-21.791695 9.808005-29.565695 3.32764-4.88635 7.09504-9.034745 10.6007-12.272685Z" fill="#34364C"/>
        <path d="M4.025 2.30276h-8.05c0-14.78141 4.483275-29.538095 14.40168-40.3397 1.554225-2.11554 2.472385-4.727535 2.472385-7.55389 0-7.05364-5.71803-12.77167-12.77167-12.77167-7.05364 0-12.77167 5.71803-12.77167 12.77167 0 3.480015 1.39196 6.634925 3.64941 8.93849-7.97801 5.687555-22.8068 20.932415-22.8068 40.019425 0 19.262155 15.10203 27.060305 23.02461 28.66122L-38.2375 37.23125V52.325h76.62979V37.23125L8.284485 31.950795c8.012165-1.76364 22.657645-9.615035 22.657645-28.58371C30.94213-9.05326 25.15625-20.125 18.1125-28.175 10.37668-22.1375 4.025-8.05 4.025 2.30276Z" fill="#F4F7FA"/>
      </g>
    </g>
  </g>
  <g>
    <path stroke="#000" fill="#B9C2DA" d="m-50 87-50-87h-100l-50 87 50 87h100z"/>
  </g>
  <g>
    <path stroke="#000" fill="#828CA4" d="M100 174 50 87H-50l-50 87 50 87H50z"/>
  </g>
  <g>
    <path stroke="#000" fill="#B9C2DA" d="M250 87 200 0H100L50 87l50 87h100z"/>
  </g>
  <g>
    <path stroke="#000" fill="#828CA4" d="m250-86-50-87H100L50-86l50 87h100z"/>
  </g>
  <g>
    <path stroke="#000" fill="#B9C2DA" d="m100-173-50-87H-50l-50 87 50 87H50z"/>
  </g>
  <g>
    <path stroke="#000" fill="#828CA4" d="m-50-86-50-87h-100l-50 87 50 87h100z"/>
  </g>
  <g>
    <path stroke="#000" fill="#828CA4" d="m-200 174-50-87h-100l-50 87 50 87h100z"/>
  </g>
  <g>
    <path stroke="#000" fill="#E8EDF9" d="m-50 261-50-87h-100l-50 87 50 87h100z"/>
    <path opacity=".35" fill="#7B61FF" d="m-50 261-50-87h-100l-50 87 50 87h100z"/>
  </g>
  <g>
    <path stroke="#000" fill="#B9C2DA" d="m100 348-50-87H-50l-50 87 50 87H50z"/>
  </g>
  <g>
    <path stroke="#000" fill="#E8EDF9" d="m250 261-50-87H100l-50 87 50 87h100z"/>
    <path opacity=".35" fill="#7B61FF" d="m250 261-50-87H100l-50 87 50 87h100z"/>
  </g>
  <g>
    <path stroke="#000" fill="#828CA4" d="m400 174-50-87H250l-50 87 50 87h100z"/>
  </g>
  <g>
    <path stroke="#000" fill="#E8EDF9" d="m400 1-50-87H250L200 1l50 87h100z"/>
    <path opacity=".35" fill="#7B61FF" d="m400 1-50-87H250L200 1l50 87h100z"/>
  </g>
  <g>
    <path stroke="#000" fill="#B9C2DA" d="m400-172-50-87H250l-50 87 50 87h100z"/>
  </g>
  <g>
    <path stroke="#000" fill="#E8EDF9" d="m250-259-50-87H100l-50 87 50 87h100z"/>
    <path opacity=".35" fill="#7B61FF" d="m250-259-50-87H100l-50 87 50 87h100z"/>
  </g>
  <g>
    <path stroke="#000" fill="#828CA4" d="m100-346-50-87H-50l-50 87 50 87H50z"/>
  </g>
  <g>
    <path stroke="#000" fill="#E8EDF9" d="m-50-259-50-87h-100l-50 87 50 87h100z"/>
    <path opacity=".35" fill="#7B61FF" d="m-50-259-50-87h-100l-50 87 50 87h100z"/>
  </g>
  <g>
    <path stroke="#000" fill="#B9C2DA" d="m-200-172-50-87h-100l-50 87 50 87h100z"/>
  </g>
  <g>
    <path stroke="#000" fill="#E8EDF9" d="m-200 1-50-87h-100l-50 87 50 87h100z"/>
    <path opacity=".35" fill="#7B61FF" d="m-200 1-50-87h-100l-50 87 50 87h100z"/>
  </g>
  <g>
    <path stroke="#000" fill="#E8EDF9" d="m-350 261-50-87h-100l-50 87 50 87h100z"/>
  </g>
  <g>
    <path stroke="#000" fill="#B9C2DA" d="m-200 348-50-87h-100l-50 87 50 87h100z"/>
  </g>
  <g>
    <path stroke="#000" fill="#828CA4" d="m-50 435-50-87h-100l-50 87 50 87h100z"/>
  </g>
  <g>
    <path stroke="#000" fill="#E8EDF9" d="m100 522-50-87H-50l-50 87 50 87H50z"/>
  </g>
  <g>
    <path stroke="#000" fill="#828CA4" d="m250 435-50-87H100l-50 87 50 87h100z"/>
  </g>
  <g>
    <path stroke="#000" fill="#B9C2DA" d="m400 348-50-87H250l-50 87 50 87h100z"/>
  </g>
  <g>
    <path stroke="#000" fill="#E8EDF9" d="m550 261-50-87H400l-50 87 50 87h100z"/>
  </g>
  <g>
    <path stroke="#000" fill="#B9C2DA" d="M550 88 500 1H400l-50 87 50 87h100z"/>
  </g>
  <g>
    <path stroke="#000" fill="#828CA4" d="m550-85-50-87H400l-50 87 50 87h100z"/>
  </g>
  <g>
    <path stroke="#000" fill="#E8EDF9" d="m550-258-50-87H400l-50 87 50 87h100z"/>
  </g>
  <g>
    <path stroke="#000" fill="#828CA4" d="m400-345-50-87H250l-50 87 50 87h100z"/>
  </g>
  <g>
    <path stroke="#000" fill="#B9C2DA" d="m250-432-50-87H100l-50 87 50 87h100z"/>
  </g>
  <g>
    <path stroke="#000" fill="#E8EDF9" d="m100-519-50-87H-50l-50 87 50 87H50z"/>
  </g>
  <g>
    <path stroke="#000" fill="#B9C2DA" d="m-50-432-50-87h-100l-50 87 50 87h100z"/>
  </g>
  <g>
    <path stroke="#000" fill="#828CA4" d="m-200-345-50-87h-100l-50 87 50 87h100z"/>
  </g>
  <g>
    <path stroke="#000" fill="#E8EDF9" d="m-350-258-50-87h-100l-50 87 50 87h100z"/>
  </g>
  <g>
    <path stroke="#000" fill="#828CA4" d="m-350-85-50-87h-100l-50 87 50 87h100z"/>
  </g>
  <g>
    <path stroke="#000" fill="#B9C2DA" d="m-350 88-50-87h-100l-50 87 50 87h100z"/>
  </g>
  <g>
    <path stroke="#000" fill="#B9C2DA" d="m-500 348-50-87h-100l-50 87 50 87h100z"/>
  </g>
  <g>
    <path stroke="#000" fill="#828CA4" d="m-350 435-50-87h-100l-50 87 50 87h100z"/>
  </g>
  <g>
    <path stroke="#000" fill="#E8EDF9" d="m-200 522-50-87h-100l-50 87 50 87h100z"/>
    <path opacity=".35" fill="#7B61FF" d="m-200 522-50-87h-100l-50 87 50 87h100z"/>
  </g>
  <g>
    <path stroke="#000" fill="#B9C2DA" d="m-50 609-50-87h-100l-50 87 50 87h100z"/>
  </g>
  <g>
    <path stroke="#000" fill="#828CA4" d="m100 696-50-87H-50l-50 87 50 87H50z"/>
  </g>
  <g>
    <path stroke="#000" fill="#B9C2DA" d="m250 609-50-87H100l-50 87 50 87h100z"/>
  </g>
  <g>
    <path stroke="#000" fill="#E8EDF9" d="m400 522-50-87H250l-50 87 50 87h100z"/>
    <path opacity=".35" fill="#7B61FF" d="m400 522-50-87H250l-50 87 50 87h100z"/>
  </g>
  <g>
    <path stroke="#000" fill="#828CA4" d="m550 435-50-87H400l-50 87 50 87h100z"/>
  </g>
  <g>
    <path stroke="#000" fill="#B9C2DA" d="m700 348-50-87H550l-50 87 50 87h100z"/>
  </g>
  <g>
    <path stroke="#000" fill="#828CA4" d="m700 175-50-87H550l-50 87 50 87h100z"/>
  </g>
  <g>
    <path stroke="#000" fill="#E8EDF9" d="m700 2-50-87H550L500 2l50 87h100z"/>
    <path opacity=".35" fill="#7B61FF" d="m700 2-50-87H550L500 2l50 87h100z"/>
  </g>
  <g>
    <path stroke="#000" fill="#B9C2DA" d="m700-171-50-87H550l-50 87 50 87h100z"/>
  </g>
  <g>
    <path stroke="#000" fill="#828CA4" d="m700-344-50-87H550l-50 87 50 87h100z"/>
  </g>
  <g>
    <path stroke="#000" fill="#B9C2DA" d="m550-431-50-87H400l-50 87 50 87h100z"/>
  </g>
  <g>
    <path stroke="#000" fill="#E8EDF9" d="m400-518-50-87H250l-50 87 50 87h100z"/>
    <path opacity=".35" fill="#7B61FF" d="m400-518-50-87H250l-50 87 50 87h100z"/>
  </g>
  <g>
    <path stroke="#000" fill="#828CA4" d="m250-605-50-87H100l-50 87 50 87h100z"/>
  </g>
  <g>
    <path stroke="#000" fill="#B9C2DA" d="m100-692-50-87H-50l-50 87 50 87H50z"/>
  </g>
  <g>
    <path stroke="#000" fill="#828CA4" d="m-50-605-50-87h-100l-50 87 50 87h100z"/>
  </g>
  <g>
    <path stroke="#000" fill="#E8EDF9" d="m-200-518-50-87h-100l-50 87 50 87h100z"/>
    <path opacity=".35" fill="#7B61FF" d="m-200-518-50-87h-100l-50 87 50 87h100z"/>
  </g>
  <g>
    <path stroke="#000" fill="#B9C2DA" d="m-350-431-50-87h-100l-50 87 50 87h100z"/>
  </g>
  <g>
    <path stroke="#000" fill="#828CA4" d="m-500-344-50-87h-100l-50 87 50 87h100z"/>
  </g>
  <g>
    <path stroke="#000" fill="#B9C2DA" d="m-500-171-50-87h-100l-50 87 50 87h100z"/>
  </g>
  <g>
    <path stroke="#000" fill="#E8EDF9" d="m-500 2-50-87h-100l-50 87 50 87h100z"/>
    <path opacity=".35" fill="#7B61FF" d="m-500 2-50-87h-100l-50 87 50 87h100z"/>
  </g>
  <g>
    <path stroke="#000" fill="#828CA4" d="m-500 175-50-87h-100l-50 87 50 87h100z"/>
  </g>
  <g>
    <path stroke="#000" fill="#828CA4" d="m-650 435-50-87h-100l-50 87 50 87h100z"/>
  </g>
  <g>
    <path stroke="#000" fill="#E8EDF9" d="m-500 522-50-87h-100l-50 87 50 87h100z"/>
  </g>
  <g>
    <path stroke="#000" fill="#B9C2DA" d="m-350 609-50-87h-100l-50 87 50 87h100z"/>
  </g>
  <g>
    <path stroke="#000" fill="#828CA4" d="m-200 696-50-87h-100l-50 87 50 87h100z"/>
  </g>
  <g>
    <path stroke="#000" fill="#E8EDF9" d="m-50 783-50-87h-100l-50 87 50 87h100z"/>
  </g>
  <g>
    <path stroke="#000" fill="#B9C2DA" d="m100 870-50-87H-50l-50 87 50 87H50z"/>
  </g>
  <g>
    <path stroke="#000" fill="#E8EDF9" d="m250 783-50-87H100l-50 87 50 87h100z"/>
  </g>
  <g>
    <path stroke="#000" fill="#828CA4" d="m400 696-50-87H250l-50 87 50 87h100z"/>
  </g>
  <g>
    <path stroke="#000" fill="#B9C2DA" d="m550 609-50-87H400l-50 87 50 87h100z"/>
  </g>
  <g>
    <path stroke="#000" fill="#E8EDF9" d="m700 522-50-87H550l-50 87 50 87h100z"/>
  </g>
  <g>
    <path stroke="#000" fill="#828CA4" d="m850 435-50-87H700l-50 87 50 87h100z"/>
  </g>
  <g>
    <path stroke="#000" fill="#E8EDF9" d="m850 262-50-87H700l-50 87 50 87h100z"/>
  </g>
  <g>
    <path stroke="#000" fill="#B9C2DA" d="M850 89 800 2H700l-50 87 50 87h100z"/>
  </g>
  <g>
    <path stroke="#000" fill="#828CA4" d="m850-84-50-87H700l-50 87 50 87h100z"/>
  </g>
  <g>
    <path stroke="#000" fill="#E8EDF9" d="m850-257-50-87H700l-50 87 50 87h100z"/>
  </g>
  <g>
    <path stroke="#000" fill="#B9C2DA" d="m850-430-50-87H700l-50 87 50 87h100z"/>
  </g>
  <g>
    <path stroke="#000" fill="#E8EDF9" d="m700-517-50-87H550l-50 87 50 87h100z"/>
  </g>
  <g>
    <path stroke="#000" fill="#828CA4" d="m550-604-50-87H400l-50 87 50 87h100z"/>
  </g>
  <g>
    <path stroke="#000" fill="#B9C2DA" d="m400-691-50-87H250l-50 87 50 87h100z"/>
  </g>
  <g>
    <path stroke="#000" fill="#E8EDF9" d="m250-778-50-87H100l-50 87 50 87h100z"/>
  </g>
  <g>
    <path stroke="#000" fill="#828CA4" d="m100-865-50-87H-50l-50 87 50 87H50z"/>
  </g>
  <g>
    <path stroke="#000" fill="#E8EDF9" d="m-50-778-50-87h-100l-50 87 50 87h100z"/>
  </g>
  <g>
    <path stroke="#000" fill="#B9C2DA" d="m-200-691-50-87h-100l-50 87 50 87h100z"/>
  </g>
  <g>
    <path stroke="#000" fill="#828CA4" d="m-350-604-50-87h-100l-50 87 50 87h100z"/>
  </g>
  <g>
    <path stroke="#000" fill="#E8EDF9" d="m-500-517-50-87h-100l-50 87 50 87h100z"/>
  </g>
  <g>
    <path stroke="#000" fill="#B9C2DA" d="m-650-430-50-87h-100l-50 87 50 87h100z"/>
  </g>
  <g>
    <path stroke="#000" fill="#E8EDF9" d="m-650-257-50-87h-100l-50 87 50 87h100z"/>
  </g>
  <g>
    <path stroke="#000" fill="#828CA4" d="m-650-84-50-87h-100l-50 87 50 87h100z"/>
  </g>
  <g>
    <path stroke="#000" fill="#B9C2DA" d="m-650 89-50-87h-100l-50 87 50 87h100z"/>
  </g>
  <g>
    <path stroke="#000" fill="#E8EDF9" d="m-650 262-50-87h-100l-50 87 50 87h100z"/>
  </g>
</svg>