<svg xmlns="http://www.w3.org/2000/svg" viewBox="-862.5 -952.62794416 1725 1905.25588833" width="722.33502" height="811.0144">
  <g>
    <path stroke="#000" fill="#E8EDF9" d="M100 0 50-87H-50l-50 87 50 87H50z"/>
    <path opacity=".15" fill="red" d="M100 0 50-87H-50l-50 87 50 87H50z"/>
    <g>
      <g fill-rule="evenodd" clip-rule="evenodd">
        <path d="M-12.07109-64.651436C-11.935275-68.9973205-8.373035-72.45-4.025-72.45H8.05c4.348035 0 7.910275 3.4526795 8.04609 7.798564l.070725 2.263936H20.125c4.4459 0 8.05 3.6041 8.05 8.05v4.88244c8.774845-1.985705 18.2459-.659295 26.2844 6.039685C71.1597-29.49865 69.6233-.32591 49.8042 15.6308c-4.78285 3.850775-8.540935 7.04306-11.12832 10.332405-.590295.75049-1.096065 1.4766-1.52168 2.1873l8.1581 1.103425c3.9928.539925 6.9713 3.94841 6.9713 7.97732V52.325c0 4.4459-3.6041 8.05-8.05 8.05h-84.442315c-4.445785 0-8.05-3.6041-8.05-8.05V37.23125c0-4.02891 2.978615-7.437395 6.971185-7.97732l8.15833-1.103425c-.425615-.7107-.931385-1.43681-1.52168-2.1873-2.587385-3.289345-6.344895-6.481745-11.12786-10.332405-19.819468-15.95671-21.356075-45.12945-4.656005-59.046175 8.03873-6.69898 17.5099-8.02539 26.284745-6.039685v-4.88244c0-4.4459 3.6041-8.05 8.05-8.05h3.958185l.070725-2.263936Z" fill="#34364C"/>
        <path d="M-4.025-64.4H8.05l.31441 10.0625H20.125v12.075H8.74184l.55292 13.670855c.220685-.2599.447925-.514855.682065-.763715 10.99469-11.68538 27.296055-17.903775 39.329425-7.87589 12.075 10.0625 12.075 33.20625-4.55055 46.591675-9.41827 7.58241-17.85398 14.89204-17.438255 25.5829L44.2336 37.23125V52.325h-84.442315V37.23125l16.91627-2.287925c.415725-10.69086-8.019985-18.00049-17.438025-25.5829C-57.35625-4.025-57.35625-27.16875-45.28125-37.23125c12.03337-10.027885 28.334735-3.80949 39.329425 7.87589.23414.24886.46138.503815.682065.763715l.55292-13.670855H-16.1v-12.075h11.76059L-4.025-64.4Zm-11.37465 46.23345C-8.020445-6.079475-7.04375 8.05-7.04375 14.194565c-3.69863.00667-17.64192-6.127545-25.024115-16.19775-5.314725-7.24983-6.700475-18.006125-2.144635-22.18212 4.55584-4.175765 14.20089-1.535595 18.81285 6.018755Zm34.8243 0C12.045445-6.079475 11.06875 8.05 11.06875 14.194565c3.69863.00667 17.64192-6.127545 25.024115-16.19775C41.40759-9.253015 42.7938-20.00931 38.2375-24.185305 33.68166-28.36107 24.03661-25.7209 19.42465-18.16655Z" fill="#F4F7FA"/>
      </g>
    </g>
  </g>
  <g>
    <path stroke="#000" fill="#B9C2DA" d="m-50 87-50-87h-100l-50 87 50 87h100z"/>
    <path opacity=".35" fill="#7B61FF" d="m-50 87-50-87h-100l-50 87 50 87h100z"/>
  </g>
  <g>
    <path stroke="#000" fill="#828CA4" d="M100 174 50 87H-50l-50 87 50 87H50z"/>
    <path opacity=".35" fill="#7B61FF" d="M100 174 50 87H-50l-50 87 50 87H50z"/>
  </g>
  <g>
    <path stroke="#000" fill="#B9C2DA" d="M250 87 200 0H100L50 87l50 87h100z"/>
    <path opacity=".35" fill="#7B61FF" d="M250 87 200 0H100L50 87l50 87h100z"/>
  </g>
  <g>
    <path stroke="#000" fill="#828CA4" d="m250-86-50-87H100L50-86l50 87h100z"/>
    <path opacity=".35" fill="#7B61FF" d="m250-86-50-87H100L50-86l50 87h100z"/>
  </g>
  <g>
    <path stroke="#000" fill="#B9C2DA" d="m100-173-50-87H-50l-50 87 50 87H50z"/>
    <path opacity=".35" fill="#7B61FF" d="m100-173-50-87H-50l-50 87 50 87H50z"/>
  </g>
  <g>
    <path stroke="#000" fill="#828CA4" d="m-50-86-50-87h-100l-50 87 50 87h100z"/>
    <path opacity=".35" fill="#7B61FF" d="m-50-86-50-87h-100l-50 87 50 87h100z"/>
  </g>
  <g>
    <path stroke="#000" fill="#828CA4" d="m-200 174-50-87h-100l-50 87 50 87h100z"/>
  </g>
  <g>
    <path stroke="#000" fill="#E8EDF9" d="m-50 261-50-87h-100l-50 87 50 87h100z"/>
    <path opacity=".35" fill="#7B61FF" d="m-50 261-50-87h-100l-50 87 50 87h100z"/>
  </g>
  <g>
    <path stroke="#000" fill="#B9C2DA" d="m100 348-50-87H-50l-50 87 50 87H50z"/>
  </g>
  <g>
    <path stroke="#000" fill="#E8EDF9" d="m250 261-50-87H100l-50 87 50 87h100z"/>
    <path opacity=".35" fill="#7B61FF" d="m250 261-50-87H100l-50 87 50 87h100z"/>
  </g>
  <g>
    <path stroke="#000" fill="#828CA4" d="m400 174-50-87H250l-50 87 50 87h100z"/>
  </g>
  <g>
    <path stroke="#000" fill="#E8EDF9" d="m400 1-50-87H250L200 1l50 87h100z"/>
    <path opacity=".35" fill="#7B61FF" d="m400 1-50-87H250L200 1l50 87h100z"/>
  </g>
  <g>
    <path stroke="#000" fill="#B9C2DA" d="m400-172-50-87H250l-50 87 50 87h100z"/>
  </g>
  <g>
    <path stroke="#000" fill="#E8EDF9" d="m250-259-50-87H100l-50 87 50 87h100z"/>
    <path opacity=".35" fill="#7B61FF" d="m250-259-50-87H100l-50 87 50 87h100z"/>
  </g>
  <g>
    <path stroke="#000" fill="#828CA4" d="m100-346-50-87H-50l-50 87 50 87H50z"/>
  </g>
  <g>
    <path stroke="#000" fill="#E8EDF9" d="m-50-259-50-87h-100l-50 87 50 87h100z"/>
    <path opacity=".35" fill="#7B61FF" d="m-50-259-50-87h-100l-50 87 50 87h100z"/>
  </g>
  <g>
    <path stroke="#000" fill="#B9C2DA" d="m-200-172-50-87h-100l-50 87 50 87h100z"/>
  </g>
  <g>
    <path stroke="#000" fill="#E8EDF9" d="m-200 1-50-87h-100l-50 87 50 87h100z"/>
    <path opacity=".35" fill="#7B61FF" d="m-200 1-50-87h-100l-50 87 50 87h100z"/>
  </g>
  <g>
    <path stroke="#000" fill="#E8EDF9" d="m-350 261-50-87h-100l-50 87 50 87h100z"/>
  </g>
  <g>
    <path stroke="#000" fill="#B9C2DA" d="m-200 348-50-87h-100l-50 87 50 87h100z"/>
  </g>
  <g>
    <path stroke="#000" fill="#828CA4" d="m-50 435-50-87h-100l-50 87 50 87h100z"/>
  </g>
  <g>
    <path stroke="#000" fill="#E8EDF9" d="m100 522-50-87H-50l-50 87 50 87H50z"/>
  </g>
  <g>
    <path stroke="#000" fill="#828CA4" d="m250 435-50-87H100l-50 87 50 87h100z"/>
  </g>
  <g>
    <path stroke="#000" fill="#B9C2DA" d="m400 348-50-87H250l-50 87 50 87h100z"/>
  </g>
  <g>
    <path stroke="#000" fill="#E8EDF9" d="m550 261-50-87H400l-50 87 50 87h100z"/>
  </g>
  <g>
    <path stroke="#000" fill="#B9C2DA" d="M550 88 500 1H400l-50 87 50 87h100z"/>
  </g>
  <g>
    <path stroke="#000" fill="#828CA4" d="m550-85-50-87H400l-50 87 50 87h100z"/>
  </g>
  <g>
    <path stroke="#000" fill="#E8EDF9" d="m550-258-50-87H400l-50 87 50 87h100z"/>
  </g>
  <g>
    <path stroke="#000" fill="#828CA4" d="m400-345-50-87H250l-50 87 50 87h100z"/>
  </g>
  <g>
    <path stroke="#000" fill="#B9C2DA" d="m250-432-50-87H100l-50 87 50 87h100z"/>
  </g>
  <g>
    <path stroke="#000" fill="#E8EDF9" d="m100-519-50-87H-50l-50 87 50 87H50z"/>
  </g>
  <g>
    <path stroke="#000" fill="#B9C2DA" d="m-50-432-50-87h-100l-50 87 50 87h100z"/>
  </g>
  <g>
    <path stroke="#000" fill="#828CA4" d="m-200-345-50-87h-100l-50 87 50 87h100z"/>
  </g>
  <g>
    <path stroke="#000" fill="#E8EDF9" d="m-350-258-50-87h-100l-50 87 50 87h100z"/>
  </g>
  <g>
    <path stroke="#000" fill="#828CA4" d="m-350-85-50-87h-100l-50 87 50 87h100z"/>
  </g>
  <g>
    <path stroke="#000" fill="#B9C2DA" d="m-350 88-50-87h-100l-50 87 50 87h100z"/>
  </g>
  <g>
    <path stroke="#000" fill="#B9C2DA" d="m-500 348-50-87h-100l-50 87 50 87h100z"/>
  </g>
  <g>
    <path stroke="#000" fill="#828CA4" d="m-350 435-50-87h-100l-50 87 50 87h100z"/>
  </g>
  <g>
    <path stroke="#000" fill="#E8EDF9" d="m-200 522-50-87h-100l-50 87 50 87h100z"/>
  </g>
  <g>
    <path stroke="#000" fill="#B9C2DA" d="m-50 609-50-87h-100l-50 87 50 87h100z"/>
  </g>
  <g>
    <path stroke="#000" fill="#828CA4" d="m100 696-50-87H-50l-50 87 50 87H50z"/>
  </g>
  <g>
    <path stroke="#000" fill="#B9C2DA" d="m250 609-50-87H100l-50 87 50 87h100z"/>
  </g>
  <g>
    <path stroke="#000" fill="#E8EDF9" d="m400 522-50-87H250l-50 87 50 87h100z"/>
  </g>
  <g>
    <path stroke="#000" fill="#828CA4" d="m550 435-50-87H400l-50 87 50 87h100z"/>
  </g>
  <g>
    <path stroke="#000" fill="#B9C2DA" d="m700 348-50-87H550l-50 87 50 87h100z"/>
  </g>
  <g>
    <path stroke="#000" fill="#828CA4" d="m700 175-50-87H550l-50 87 50 87h100z"/>
  </g>
  <g>
    <path stroke="#000" fill="#E8EDF9" d="m700 2-50-87H550L500 2l50 87h100z"/>
  </g>
  <g>
    <path stroke="#000" fill="#B9C2DA" d="m700-171-50-87H550l-50 87 50 87h100z"/>
  </g>
  <g>
    <path stroke="#000" fill="#828CA4" d="m700-344-50-87H550l-50 87 50 87h100z"/>
  </g>
  <g>
    <path stroke="#000" fill="#B9C2DA" d="m550-431-50-87H400l-50 87 50 87h100z"/>
  </g>
  <g>
    <path stroke="#000" fill="#E8EDF9" d="m400-518-50-87H250l-50 87 50 87h100z"/>
  </g>
  <g>
    <path stroke="#000" fill="#828CA4" d="m250-605-50-87H100l-50 87 50 87h100z"/>
  </g>
  <g>
    <path stroke="#000" fill="#B9C2DA" d="m100-692-50-87H-50l-50 87 50 87H50z"/>
  </g>
  <g>
    <path stroke="#000" fill="#828CA4" d="m-50-605-50-87h-100l-50 87 50 87h100z"/>
  </g>
  <g>
    <path stroke="#000" fill="#E8EDF9" d="m-200-518-50-87h-100l-50 87 50 87h100z"/>
  </g>
  <g>
    <path stroke="#000" fill="#B9C2DA" d="m-350-431-50-87h-100l-50 87 50 87h100z"/>
  </g>
  <g>
    <path stroke="#000" fill="#828CA4" d="m-500-344-50-87h-100l-50 87 50 87h100z"/>
  </g>
  <g>
    <path stroke="#000" fill="#B9C2DA" d="m-500-171-50-87h-100l-50 87 50 87h100z"/>
  </g>
  <g>
    <path stroke="#000" fill="#E8EDF9" d="m-500 2-50-87h-100l-50 87 50 87h100z"/>
  </g>
  <g>
    <path stroke="#000" fill="#828CA4" d="m-500 175-50-87h-100l-50 87 50 87h100z"/>
  </g>
  <g>
    <path stroke="#000" fill="#828CA4" d="m-650 435-50-87h-100l-50 87 50 87h100z"/>
  </g>
  <g>
    <path stroke="#000" fill="#E8EDF9" d="m-500 522-50-87h-100l-50 87 50 87h100z"/>
  </g>
  <g>
    <path stroke="#000" fill="#B9C2DA" d="m-350 609-50-87h-100l-50 87 50 87h100z"/>
  </g>
  <g>
    <path stroke="#000" fill="#828CA4" d="m-200 696-50-87h-100l-50 87 50 87h100z"/>
  </g>
  <g>
    <path stroke="#000" fill="#E8EDF9" d="m-50 783-50-87h-100l-50 87 50 87h100z"/>
  </g>
  <g>
    <path stroke="#000" fill="#B9C2DA" d="m100 870-50-87H-50l-50 87 50 87H50z"/>
  </g>
  <g>
    <path stroke="#000" fill="#E8EDF9" d="m250 783-50-87H100l-50 87 50 87h100z"/>
  </g>
  <g>
    <path stroke="#000" fill="#828CA4" d="m400 696-50-87H250l-50 87 50 87h100z"/>
  </g>
  <g>
    <path stroke="#000" fill="#B9C2DA" d="m550 609-50-87H400l-50 87 50 87h100z"/>
  </g>
  <g>
    <path stroke="#000" fill="#E8EDF9" d="m700 522-50-87H550l-50 87 50 87h100z"/>
  </g>
  <g>
    <path stroke="#000" fill="#828CA4" d="m850 435-50-87H700l-50 87 50 87h100z"/>
  </g>
  <g>
    <path stroke="#000" fill="#E8EDF9" d="m850 262-50-87H700l-50 87 50 87h100z"/>
  </g>
  <g>
    <path stroke="#000" fill="#B9C2DA" d="M850 89 800 2H700l-50 87 50 87h100z"/>
  </g>
  <g>
    <path stroke="#000" fill="#828CA4" d="m850-84-50-87H700l-50 87 50 87h100z"/>
  </g>
  <g>
    <path stroke="#000" fill="#E8EDF9" d="m850-257-50-87H700l-50 87 50 87h100z"/>
  </g>
  <g>
    <path stroke="#000" fill="#B9C2DA" d="m850-430-50-87H700l-50 87 50 87h100z"/>
  </g>
  <g>
    <path stroke="#000" fill="#E8EDF9" d="m700-517-50-87H550l-50 87 50 87h100z"/>
  </g>
  <g>
    <path stroke="#000" fill="#828CA4" d="m550-604-50-87H400l-50 87 50 87h100z"/>
  </g>
  <g>
    <path stroke="#000" fill="#B9C2DA" d="m400-691-50-87H250l-50 87 50 87h100z"/>
  </g>
  <g>
    <path stroke="#000" fill="#E8EDF9" d="m250-778-50-87H100l-50 87 50 87h100z"/>
  </g>
  <g>
    <path stroke="#000" fill="#828CA4" d="m100-865-50-87H-50l-50 87 50 87H50z"/>
  </g>
  <g>
    <path stroke="#000" fill="#E8EDF9" d="m-50-778-50-87h-100l-50 87 50 87h100z"/>
  </g>
  <g>
    <path stroke="#000" fill="#B9C2DA" d="m-200-691-50-87h-100l-50 87 50 87h100z"/>
  </g>
  <g>
    <path stroke="#000" fill="#828CA4" d="m-350-604-50-87h-100l-50 87 50 87h100z"/>
  </g>
  <g>
    <path stroke="#000" fill="#E8EDF9" d="m-500-517-50-87h-100l-50 87 50 87h100z"/>
  </g>
  <g>
    <path stroke="#000" fill="#B9C2DA" d="m-650-430-50-87h-100l-50 87 50 87h100z"/>
  </g>
  <g>
    <path stroke="#000" fill="#E8EDF9" d="m-650-257-50-87h-100l-50 87 50 87h100z"/>
  </g>
  <g>
    <path stroke="#000" fill="#828CA4" d="m-650-84-50-87h-100l-50 87 50 87h100z"/>
  </g>
  <g>
    <path stroke="#000" fill="#B9C2DA" d="m-650 89-50-87h-100l-50 87 50 87h100z"/>
  </g>
  <g>
    <path stroke="#000" fill="#E8EDF9" d="m-650 262-50-87h-100l-50 87 50 87h100z"/>
  </g>
</svg>
