<svg xmlns="http://www.w3.org/2000/svg" viewBox="-862.5 -952.62794416 1725 1905.25588833" width="722.33502" height="811.0144">
  <g>
    <path fill="#E8EDF9" stroke="#000" d="M100 0 50-87H-50l-50 87 50 87H50z"/>
    <path fill="red" d="M100 0 50-87H-50l-50 87 50 87H50z" opacity=".15"/>
    <g>
      <g transform="matrix(1.15 0 0 1.15 -72.45 -72.45)">
        <path fill="#34364C" d="M51.9572.887187c2.3042-.259095 4.5872.639613 6.0964 2.399893L72.3353 19.9444c16.4009 4.053 25.9036 16.4028 31.1597 31.82 5.415 15.8861 6.755 36.054 6.755 56.7356 0 3.866-3.134 7-7 7H37.9836c-3.7162 0-6.7847-2.904-6.9894-6.615-.1826-3.311.5793-9.0564 2.9008-14.925l.0427-.1075c-6.5927 3.5388-13.9093 2.6912-19.3407-1.176C7.99623 87.9769 4.32604 78.777 8.51928 69.6916c3.02382-6.5515 6.28282-10.0209 8.74822-12.6447 2.3029-2.4509 3.2626-3.5289 3.9415-6.2446 4.1164-16.4657 12.5851-25.9511 21.6797-30.2799-.1315-1.8758-.0245-3.6831.2056-5.3239.5727-4.0841 1.9985-7.85834 3.4518-10.61744 1.0806-2.0515 3.107-3.43478 5.4111-3.693873Z"/>
        <circle cx="49" cy="47.25" r="5.25" fill="#34364C"/>
        <path fill="#F4F7FA" fill-rule="evenodd" d="M68.5487 26.2824 52.7394 7.84333C50.451 12.1879 48.2324 19.8557 51.4221 25.391c-1.5482.1379-3.0277.3997-4.1721.859C39.9488 29.18 31.9375 36.75 28 52.5c-1.1401 4.5606-3.1922 6.7445-5.6312 9.3402-2.3006 2.4485-4.9454 5.2633-7.4938 10.7848C9.62501 84 23.7936 95.375 34.125 85.0436c5.8085-5.8085 10.8856-8.2064 15.1483-10.2196 6.1352-2.8975 10.5831-4.9982 13.0956-15.324 1.1953 4.8165.7172 16.1835-10.7582 23.1192C40.1353 89.555 37.7445 104.165 37.9836 108.5H103.25c0-41.1544-5.4487-76.7116-34.7013-82.2176Z" clip-rule="evenodd"/>
      </g>
    </g>
  </g>
  <g>
    <path fill="#B9C2DA" stroke="#000" d="m-50 87-50-87h-100l-50 87 50 87h100z"/>
  </g>
  <g>
    <path fill="#828CA4" stroke="#000" d="M100 174 50 87H-50l-50 87 50 87H50z"/>
  </g>
  <g>
    <path fill="#B9C2DA" stroke="#000" d="M250 87 200 0H100L50 87l50 87h100z"/>
  </g>
  <g>
    <path fill="#828CA4" stroke="#000" d="m250-86-50-87H100L50-86l50 87h100z"/>
  </g>
  <g>
    <path fill="#B9C2DA" stroke="#000" d="m100-173-50-87H-50l-50 87 50 87H50z"/>
  </g>
  <g>
    <path fill="#828CA4" stroke="#000" d="m-50-86-50-87h-100l-50 87 50 87h100z"/>
  </g>
  <g>
    <path fill="#828CA4" stroke="#000" d="m-200 174-50-87h-100l-50 87 50 87h100z"/>
  </g>
  <g>
    <path fill="#E8EDF9" stroke="#000" d="m-50 261-50-87h-100l-50 87 50 87h100z"/>
  </g>
  <g>
    <path fill="#B9C2DA" stroke="#000" d="m100 348-50-87H-50l-50 87 50 87H50z"/>
  </g>
  <g>
    <path fill="#E8EDF9" stroke="#000" d="m250 261-50-87H100l-50 87 50 87h100z"/>
  </g>
  <g>
    <path fill="#828CA4" stroke="#000" d="m400 174-50-87H250l-50 87 50 87h100z"/>
  </g>
  <g>
    <path fill="#E8EDF9" stroke="#000" d="m400 1-50-87H250L200 1l50 87h100z"/>
  </g>
  <g>
    <path fill="#B9C2DA" stroke="#000" d="m400-172-50-87H250l-50 87 50 87h100z"/>
  </g>
  <g>
    <path fill="#E8EDF9" stroke="#000" d="m250-259-50-87H100l-50 87 50 87h100z"/>
  </g>
  <g>
    <path fill="#828CA4" stroke="#000" d="m100-346-50-87H-50l-50 87 50 87H50z"/>
  </g>
  <g>
    <path fill="#E8EDF9" stroke="#000" d="m-50-259-50-87h-100l-50 87 50 87h100z"/>
  </g>
  <g>
    <path fill="#B9C2DA" stroke="#000" d="m-200-172-50-87h-100l-50 87 50 87h100z"/>
  </g>
  <g>
    <path fill="#E8EDF9" stroke="#000" d="m-200 1-50-87h-100l-50 87 50 87h100z"/>
  </g>
  <g>
    <path fill="#E8EDF9" stroke="#000" d="m-350 261-50-87h-100l-50 87 50 87h100z"/>
  </g>
  <g>
    <path fill="#B9C2DA" stroke="#000" d="m-200 348-50-87h-100l-50 87 50 87h100z"/>
    <path fill="#7B61FF" d="m-200 348-50-87h-100l-50 87 50 87h100z" opacity=".35"/>
  </g>
  <g>
    <path fill="#828CA4" stroke="#000" d="m-50 435-50-87h-100l-50 87 50 87h100z"/>
    <path fill="#7B61FF" d="m-50 435-50-87h-100l-50 87 50 87h100z" opacity=".35"/>
  </g>
  <g>
    <path fill="#E8EDF9" stroke="#000" d="m100 522-50-87H-50l-50 87 50 87H50z"/>
  </g>
  <g>
    <path fill="#828CA4" stroke="#000" d="m250 435-50-87H100l-50 87 50 87h100z"/>
    <path fill="#7B61FF" d="m250 435-50-87H100l-50 87 50 87h100z" opacity=".35"/>
  </g>
  <g>
    <path fill="#B9C2DA" stroke="#000" d="m400 348-50-87H250l-50 87 50 87h100z"/>
    <path fill="#7B61FF" d="m400 348-50-87H250l-50 87 50 87h100z" opacity=".35"/>
  </g>
  <g>
    <path fill="#E8EDF9" stroke="#000" d="m550 261-50-87H400l-50 87 50 87h100z"/>
  </g>
  <g>
    <path fill="#B9C2DA" stroke="#000" d="M550 88 500 1H400l-50 87 50 87h100z"/>
    <path fill="#7B61FF" d="M550 88 500 1H400l-50 87 50 87h100z" opacity=".35"/>
  </g>
  <g>
    <path fill="#828CA4" stroke="#000" d="m550-85-50-87H400l-50 87 50 87h100z"/>
    <path fill="#7B61FF" d="m550-85-50-87H400l-50 87 50 87h100z" opacity=".35"/>
  </g>
  <g>
    <path fill="#E8EDF9" stroke="#000" d="m550-258-50-87H400l-50 87 50 87h100z"/>
  </g>
  <g>
    <path fill="#828CA4" stroke="#000" d="m400-345-50-87H250l-50 87 50 87h100z"/>
    <path fill="#7B61FF" d="m400-345-50-87H250l-50 87 50 87h100z" opacity=".35"/>
  </g>
  <g>
    <path fill="#B9C2DA" stroke="#000" d="m250-432-50-87H100l-50 87 50 87h100z"/>
    <path fill="#7B61FF" d="m250-432-50-87H100l-50 87 50 87h100z" opacity=".35"/>
  </g>
  <g>
    <path fill="#E8EDF9" stroke="#000" d="m100-519-50-87H-50l-50 87 50 87H50z"/>
  </g>
  <g>
    <path fill="#B9C2DA" stroke="#000" d="m-50-432-50-87h-100l-50 87 50 87h100z"/>
    <path fill="#7B61FF" d="m-50-432-50-87h-100l-50 87 50 87h100z" opacity=".35"/>
  </g>
  <g>
    <path fill="#828CA4" stroke="#000" d="m-200-345-50-87h-100l-50 87 50 87h100z"/>
    <path fill="#7B61FF" d="m-200-345-50-87h-100l-50 87 50 87h100z" opacity=".35"/>
  </g>
  <g>
    <path fill="#E8EDF9" stroke="#000" d="m-350-258-50-87h-100l-50 87 50 87h100z"/>
  </g>
  <g>
    <path fill="#828CA4" stroke="#000" d="m-350-85-50-87h-100l-50 87 50 87h100z"/>
    <path fill="#7B61FF" d="m-350-85-50-87h-100l-50 87 50 87h100z" opacity=".35"/>
  </g>
  <g>
    <path fill="#B9C2DA" stroke="#000" d="m-350 88-50-87h-100l-50 87 50 87h100z"/>
    <path fill="#7B61FF" d="m-350 88-50-87h-100l-50 87 50 87h100z" opacity=".35"/>
  </g>
  <g>
    <path fill="#B9C2DA" stroke="#000" d="m-500 348-50-87h-100l-50 87 50 87h100z"/>
  </g>
  <g>
    <path fill="#828CA4" stroke="#000" d="m-350 435-50-87h-100l-50 87 50 87h100z"/>
  </g>
  <g>
    <path fill="#E8EDF9" stroke="#000" d="m-200 522-50-87h-100l-50 87 50 87h100z"/>
  </g>
  <g>
    <path fill="#B9C2DA" stroke="#000" d="m-50 609-50-87h-100l-50 87 50 87h100z"/>
  </g>
  <g>
    <path fill="#828CA4" stroke="#000" d="m100 696-50-87H-50l-50 87 50 87H50z"/>
  </g>
  <g>
    <path fill="#B9C2DA" stroke="#000" d="m250 609-50-87H100l-50 87 50 87h100z"/>
  </g>
  <g>
    <path fill="#E8EDF9" stroke="#000" d="m400 522-50-87H250l-50 87 50 87h100z"/>
  </g>
  <g>
    <path fill="#828CA4" stroke="#000" d="m550 435-50-87H400l-50 87 50 87h100z"/>
  </g>
  <g>
    <path fill="#B9C2DA" stroke="#000" d="m700 348-50-87H550l-50 87 50 87h100z"/>
  </g>
  <g>
    <path fill="#828CA4" stroke="#000" d="m700 175-50-87H550l-50 87 50 87h100z"/>
  </g>
  <g>
    <path fill="#E8EDF9" stroke="#000" d="m700 2-50-87H550L500 2l50 87h100z"/>
  </g>
  <g>
    <path fill="#B9C2DA" stroke="#000" d="m700-171-50-87H550l-50 87 50 87h100z"/>
  </g>
  <g>
    <path fill="#828CA4" stroke="#000" d="m700-344-50-87H550l-50 87 50 87h100z"/>
  </g>
  <g>
    <path fill="#B9C2DA" stroke="#000" d="m550-431-50-87H400l-50 87 50 87h100z"/>
  </g>
  <g>
    <path fill="#E8EDF9" stroke="#000" d="m400-518-50-87H250l-50 87 50 87h100z"/>
  </g>
  <g>
    <path fill="#828CA4" stroke="#000" d="m250-605-50-87H100l-50 87 50 87h100z"/>
  </g>
  <g>
    <path fill="#B9C2DA" stroke="#000" d="m100-692-50-87H-50l-50 87 50 87H50z"/>
  </g>
  <g>
    <path fill="#828CA4" stroke="#000" d="m-50-605-50-87h-100l-50 87 50 87h100z"/>
  </g>
  <g>
    <path fill="#E8EDF9" stroke="#000" d="m-200-518-50-87h-100l-50 87 50 87h100z"/>
  </g>
  <g>
    <path fill="#B9C2DA" stroke="#000" d="m-350-431-50-87h-100l-50 87 50 87h100z"/>
  </g>
  <g>
    <path fill="#828CA4" stroke="#000" d="m-500-344-50-87h-100l-50 87 50 87h100z"/>
  </g>
  <g>
    <path fill="#B9C2DA" stroke="#000" d="m-500-171-50-87h-100l-50 87 50 87h100z"/>
  </g>
  <g>
    <path fill="#E8EDF9" stroke="#000" d="m-500 2-50-87h-100l-50 87 50 87h100z"/>
  </g>
  <g>
    <path fill="#828CA4" stroke="#000" d="m-500 175-50-87h-100l-50 87 50 87h100z"/>
  </g>
  <g>
    <path fill="#828CA4" stroke="#000" d="m-650 435-50-87h-100l-50 87 50 87h100z"/>
  </g>
  <g>
    <path fill="#E8EDF9" stroke="#000" d="m-500 522-50-87h-100l-50 87 50 87h100z"/>
  </g>
  <g>
    <path fill="#B9C2DA" stroke="#000" d="m-350 609-50-87h-100l-50 87 50 87h100z"/>
  </g>
  <g>
    <path fill="#828CA4" stroke="#000" d="m-200 696-50-87h-100l-50 87 50 87h100z"/>
  </g>
  <g>
    <path fill="#E8EDF9" stroke="#000" d="m-50 783-50-87h-100l-50 87 50 87h100z"/>
  </g>
  <g>
    <path fill="#B9C2DA" stroke="#000" d="m100 870-50-87H-50l-50 87 50 87H50z"/>
  </g>
  <g>
    <path fill="#E8EDF9" stroke="#000" d="m250 783-50-87H100l-50 87 50 87h100z"/>
  </g>
  <g>
    <path fill="#828CA4" stroke="#000" d="m400 696-50-87H250l-50 87 50 87h100z"/>
  </g>
  <g>
    <path fill="#B9C2DA" stroke="#000" d="m550 609-50-87H400l-50 87 50 87h100z"/>
  </g>
  <g>
    <path fill="#E8EDF9" stroke="#000" d="m700 522-50-87H550l-50 87 50 87h100z"/>
  </g>
  <g>
    <path fill="#828CA4" stroke="#000" d="m850 435-50-87H700l-50 87 50 87h100z"/>
  </g>
  <g>
    <path fill="#E8EDF9" stroke="#000" d="m850 262-50-87H700l-50 87 50 87h100z"/>
  </g>
  <g>
    <path fill="#B9C2DA" stroke="#000" d="M850 89 800 2H700l-50 87 50 87h100z"/>
  </g>
  <g>
    <path fill="#828CA4" stroke="#000" d="m850-84-50-87H700l-50 87 50 87h100z"/>
  </g>
  <g>
    <path fill="#E8EDF9" stroke="#000" d="m850-257-50-87H700l-50 87 50 87h100z"/>
  </g>
  <g>
    <path fill="#B9C2DA" stroke="#000" d="m850-430-50-87H700l-50 87 50 87h100z"/>
  </g>
  <g>
    <path fill="#E8EDF9" stroke="#000" d="m700-517-50-87H550l-50 87 50 87h100z"/>
  </g>
  <g>
    <path fill="#828CA4" stroke="#000" d="m550-604-50-87H400l-50 87 50 87h100z"/>
  </g>
  <g>
    <path fill="#B9C2DA" stroke="#000" d="m400-691-50-87H250l-50 87 50 87h100z"/>
  </g>
  <g>
    <path fill="#E8EDF9" stroke="#000" d="m250-778-50-87H100l-50 87 50 87h100z"/>
  </g>
  <g>
    <path fill="#828CA4" stroke="#000" d="m100-865-50-87H-50l-50 87 50 87H50z"/>
  </g>
  <g>
    <path fill="#E8EDF9" stroke="#000" d="m-50-778-50-87h-100l-50 87 50 87h100z"/>
  </g>
  <g>
    <path fill="#B9C2DA" stroke="#000" d="m-200-691-50-87h-100l-50 87 50 87h100z"/>
  </g>
  <g>
    <path fill="#828CA4" stroke="#000" d="m-350-604-50-87h-100l-50 87 50 87h100z"/>
  </g>
  <g>
    <path fill="#E8EDF9" stroke="#000" d="m-500-517-50-87h-100l-50 87 50 87h100z"/>
  </g>
  <g>
    <path fill="#B9C2DA" stroke="#000" d="m-650-430-50-87h-100l-50 87 50 87h100z"/>
  </g>
  <g>
    <path fill="#E8EDF9" stroke="#000" d="m-650-257-50-87h-100l-50 87 50 87h100z"/>
  </g>
  <g>
    <path fill="#828CA4" stroke="#000" d="m-650-84-50-87h-100l-50 87 50 87h100z"/>
  </g>
  <g>
    <path fill="#B9C2DA" stroke="#000" d="m-650 89-50-87h-100l-50 87 50 87h100z"/>
  </g>
  <g>
    <path fill="#E8EDF9" stroke="#000" d="m-650 262-50-87h-100l-50 87 50 87h100z"/>
  </g>
</svg>
