<svg xmlns="http://www.w3.org/2000/svg" viewBox="-862.5 -952.62794416 1725 1905.25588833" width="722.33502" height="811.0144">
  <g>
    <path fill="#E8EDF9" stroke="#000" d="M100 0 50-87H-50l-50 87 50 87H50z"/>
    <path fill="#7B61FF" d="M100 0 50-87H-50l-50 87 50 87H50z" opacity=".35"/>
  </g>
  <g>
    <path fill="#B9C2DA" stroke="#000" d="m-50 87-50-87h-100l-50 87 50 87h100z"/>
    <path fill="#7B61FF" d="m-50 87-50-87h-100l-50 87 50 87h100z" opacity=".35"/>
  </g>
  <g>
    <path fill="#828CA4" stroke="#000" d="M100 174 50 87H-50l-50 87 50 87H50z"/>
    <path fill="red" d="M100 174 50 87H-50l-50 87 50 87H50z" opacity=".15"/>
    <g>
      <g>
        <path fill="#34364C" d="M-25.946185 184.31803c-.960365 1.311115-2.10634 2.67651-3.44218 4.081005-4.714425 4.956845-10.49628 9.03509-14.2278 11.16742l-.627785.358685c-2.50815 1.433245-4.05605 4.100555-4.05605 6.989355V226.325c0 4.4459 3.6041 8.05 8.05 8.05h78.4875c4.4459 0 8.05-3.6041 8.05-8.05v-19.410505c0-2.8888-1.5479-5.55611-4.05605-6.989355l-.62767-.358685c-3.731635-2.13233-9.51349-6.210575-14.2278-11.16742-1.335955-1.404495-2.48193-2.76989-3.442295-4.081005 3.53303-.851 6.15802-4.03213 6.15802-7.826325V163.3878c0-2.615675-1.270865-5.068165-3.407795-6.57662l-3.41895-2.41339c1.97271-3.833065 3.089245-8.182825 3.089245-12.789495 0-15.454735-12.52856-27.983295-27.98341-27.983295-15.454735 0-27.983295 12.52856-27.983295 27.983295 0 4.865765 1.245105 9.443685 3.428955 13.429125l-2.512865 1.77376c-2.13693 1.508455-3.407795 3.960945-3.407795 6.57662v13.103905c0 3.794195 2.62499 6.975325 6.15802 7.826325Z"/>
        <path fill="#F4F7FA" d="M18.304205 141.608295c0 5.78128-2.46123 10.987675-6.39285 14.62869l10.13035 7.150815v13.103905H12.12445c.478285 6.073955 4.375405 12.152855 9.418385 17.45516 5.35187 5.627065 11.790835 10.165425 16.066995 12.608945l.62767.358685V226.325H-40.25v-19.410505l.62767-.358685c4.27616-2.44352 10.715125-6.98188 16.066995-12.608945 5.04298-5.302305 8.940215-11.381205 9.418385-17.45516h-9.917255V163.3878l9.434715-6.659765c-4.25086-3.65562-6.94301-9.07327-6.94301-15.11974 0-11.008835 8.92446-19.933295 19.933295-19.933295 11.00895 0 19.93341 8.92446 19.93341 19.933295Z"/>
      </g>
    </g>
  </g>
  <g>
    <path fill="#B9C2DA" stroke="#000" d="M250 87 200 0H100L50 87l50 87h100z"/>
    <path fill="#7B61FF" d="M250 87 200 0H100L50 87l50 87h100z" opacity=".35"/>
  </g>
  <g>
    <path fill="#828CA4" stroke="#000" d="m250-86-50-87H100L50-86l50 87h100z"/>
  </g>
  <g>
    <path fill="#B9C2DA" stroke="#000" d="m100-173-50-87H-50l-50 87 50 87H50z"/>
    <path fill="#7B61FF" d="m100-173-50-87H-50l-50 87 50 87H50z" opacity=".35"/>
  </g>
  <g>
    <path fill="#828CA4" stroke="#000" d="m-50-86-50-87h-100l-50 87 50 87h100z"/>
  </g>
  <g>
    <path fill="#828CA4" stroke="#000" d="m-200 174-50-87h-100l-50 87 50 87h100z"/>
  </g>
  <g>
    <path fill="#E8EDF9" stroke="#000" d="m-50 261-50-87h-100l-50 87 50 87h100z"/>
  </g>
  <g>
    <path fill="#B9C2DA" stroke="#000" d="m100 348-50-87H-50l-50 87 50 87H50z"/>
  </g>
  <g>
    <path fill="#E8EDF9" stroke="#000" d="m250 261-50-87H100l-50 87 50 87h100z"/>
  </g>
  <g>
    <path fill="#828CA4" stroke="#000" d="m400 174-50-87H250l-50 87 50 87h100z"/>
  </g>
  <g>
    <path fill="#E8EDF9" stroke="#000" d="m400 1-50-87H250L200 1l50 87h100z"/>
  </g>
  <g>
    <path fill="#B9C2DA" stroke="#000" d="m400-172-50-87H250l-50 87 50 87h100z"/>
  </g>
  <g>
    <path fill="#E8EDF9" stroke="#000" d="m250-259-50-87H100l-50 87 50 87h100z"/>
  </g>
  <g>
    <path fill="#828CA4" stroke="#000" d="m100-346-50-87H-50l-50 87 50 87H50z"/>
  </g>
  <g>
    <path fill="#E8EDF9" stroke="#000" d="m-50-259-50-87h-100l-50 87 50 87h100z"/>
  </g>
  <g>
    <path fill="#B9C2DA" stroke="#000" d="m-200-172-50-87h-100l-50 87 50 87h100z"/>
  </g>
  <g>
    <path fill="#E8EDF9" stroke="#000" d="m-200 1-50-87h-100l-50 87 50 87h100z"/>
  </g>
  <g>
    <path fill="#E8EDF9" stroke="#000" d="m-350 261-50-87h-100l-50 87 50 87h100z"/>
  </g>
  <g>
    <path fill="#B9C2DA" stroke="#000" d="m-200 348-50-87h-100l-50 87 50 87h100z"/>
  </g>
  <g>
    <path fill="#828CA4" stroke="#000" d="m-50 435-50-87h-100l-50 87 50 87h100z"/>
  </g>
  <g>
    <path fill="#E8EDF9" stroke="#000" d="m100 522-50-87H-50l-50 87 50 87H50z"/>
  </g>
  <g>
    <path fill="#828CA4" stroke="#000" d="m250 435-50-87H100l-50 87 50 87h100z"/>
  </g>
  <g>
    <path fill="#B9C2DA" stroke="#000" d="m400 348-50-87H250l-50 87 50 87h100z"/>
  </g>
  <g>
    <path fill="#E8EDF9" stroke="#000" d="m550 261-50-87H400l-50 87 50 87h100z"/>
  </g>
  <g>
    <path fill="#B9C2DA" stroke="#000" d="M550 88 500 1H400l-50 87 50 87h100z"/>
  </g>
  <g>
    <path fill="#828CA4" stroke="#000" d="m550-85-50-87H400l-50 87 50 87h100z"/>
  </g>
  <g>
    <path fill="#E8EDF9" stroke="#000" d="m550-258-50-87H400l-50 87 50 87h100z"/>
  </g>
  <g>
    <path fill="#828CA4" stroke="#000" d="m400-345-50-87H250l-50 87 50 87h100z"/>
  </g>
  <g>
    <path fill="#B9C2DA" stroke="#000" d="m250-432-50-87H100l-50 87 50 87h100z"/>
  </g>
  <g>
    <path fill="#E8EDF9" stroke="#000" d="m100-519-50-87H-50l-50 87 50 87H50z"/>
  </g>
  <g>
    <path fill="#B9C2DA" stroke="#000" d="m-50-432-50-87h-100l-50 87 50 87h100z"/>
  </g>
  <g>
    <path fill="#828CA4" stroke="#000" d="m-200-345-50-87h-100l-50 87 50 87h100z"/>
  </g>
  <g>
    <path fill="#E8EDF9" stroke="#000" d="m-350-258-50-87h-100l-50 87 50 87h100z"/>
  </g>
  <g>
    <path fill="#828CA4" stroke="#000" d="m-350-85-50-87h-100l-50 87 50 87h100z"/>
  </g>
  <g>
    <path fill="#B9C2DA" stroke="#000" d="m-350 88-50-87h-100l-50 87 50 87h100z"/>
  </g>
  <g>
    <path fill="#B9C2DA" stroke="#000" d="m-500 348-50-87h-100l-50 87 50 87h100z"/>
  </g>
  <g>
    <path fill="#828CA4" stroke="#000" d="m-350 435-50-87h-100l-50 87 50 87h100z"/>
  </g>
  <g>
    <path fill="#E8EDF9" stroke="#000" d="m-200 522-50-87h-100l-50 87 50 87h100z"/>
  </g>
  <g>
    <path fill="#B9C2DA" stroke="#000" d="m-50 609-50-87h-100l-50 87 50 87h100z"/>
  </g>
  <g>
    <path fill="#828CA4" stroke="#000" d="m100 696-50-87H-50l-50 87 50 87H50z"/>
  </g>
  <g>
    <path fill="#B9C2DA" stroke="#000" d="m250 609-50-87H100l-50 87 50 87h100z"/>
  </g>
  <g>
    <path fill="#E8EDF9" stroke="#000" d="m400 522-50-87H250l-50 87 50 87h100z"/>
  </g>
  <g>
    <path fill="#828CA4" stroke="#000" d="m550 435-50-87H400l-50 87 50 87h100z"/>
  </g>
  <g>
    <path fill="#B9C2DA" stroke="#000" d="m700 348-50-87H550l-50 87 50 87h100z"/>
  </g>
  <g>
    <path fill="#828CA4" stroke="#000" d="m700 175-50-87H550l-50 87 50 87h100z"/>
  </g>
  <g>
    <path fill="#E8EDF9" stroke="#000" d="m700 2-50-87H550L500 2l50 87h100z"/>
  </g>
  <g>
    <path fill="#B9C2DA" stroke="#000" d="m700-171-50-87H550l-50 87 50 87h100z"/>
  </g>
  <g>
    <path fill="#828CA4" stroke="#000" d="m700-344-50-87H550l-50 87 50 87h100z"/>
  </g>
  <g>
    <path fill="#B9C2DA" stroke="#000" d="m550-431-50-87H400l-50 87 50 87h100z"/>
  </g>
  <g>
    <path fill="#E8EDF9" stroke="#000" d="m400-518-50-87H250l-50 87 50 87h100z"/>
  </g>
  <g>
    <path fill="#828CA4" stroke="#000" d="m250-605-50-87H100l-50 87 50 87h100z"/>
  </g>
  <g>
    <path fill="#B9C2DA" stroke="#000" d="m100-692-50-87H-50l-50 87 50 87H50z"/>
  </g>
  <g>
    <path fill="#828CA4" stroke="#000" d="m-50-605-50-87h-100l-50 87 50 87h100z"/>
  </g>
  <g>
    <path fill="#E8EDF9" stroke="#000" d="m-200-518-50-87h-100l-50 87 50 87h100z"/>
  </g>
  <g>
    <path fill="#B9C2DA" stroke="#000" d="m-350-431-50-87h-100l-50 87 50 87h100z"/>
  </g>
  <g>
    <path fill="#828CA4" stroke="#000" d="m-500-344-50-87h-100l-50 87 50 87h100z"/>
  </g>
  <g>
    <path fill="#B9C2DA" stroke="#000" d="m-500-171-50-87h-100l-50 87 50 87h100z"/>
  </g>
  <g>
    <path fill="#E8EDF9" stroke="#000" d="m-500 2-50-87h-100l-50 87 50 87h100z"/>
  </g>
  <g>
    <path fill="#828CA4" stroke="#000" d="m-500 175-50-87h-100l-50 87 50 87h100z"/>
  </g>
  <g>
    <path fill="#828CA4" stroke="#000" d="m-650 435-50-87h-100l-50 87 50 87h100z"/>
  </g>
  <g>
    <path fill="#E8EDF9" stroke="#000" d="m-500 522-50-87h-100l-50 87 50 87h100z"/>
  </g>
  <g>
    <path fill="#B9C2DA" stroke="#000" d="m-350 609-50-87h-100l-50 87 50 87h100z"/>
  </g>
  <g>
    <path fill="#828CA4" stroke="#000" d="m-200 696-50-87h-100l-50 87 50 87h100z"/>
  </g>
  <g>
    <path fill="#E8EDF9" stroke="#000" d="m-50 783-50-87h-100l-50 87 50 87h100z"/>
  </g>
  <g>
    <path fill="#B9C2DA" stroke="#000" d="m100 870-50-87H-50l-50 87 50 87H50z"/>
  </g>
  <g>
    <path fill="#E8EDF9" stroke="#000" d="m250 783-50-87H100l-50 87 50 87h100z"/>
  </g>
  <g>
    <path fill="#828CA4" stroke="#000" d="m400 696-50-87H250l-50 87 50 87h100z"/>
  </g>
  <g>
    <path fill="#B9C2DA" stroke="#000" d="m550 609-50-87H400l-50 87 50 87h100z"/>
  </g>
  <g>
    <path fill="#E8EDF9" stroke="#000" d="m700 522-50-87H550l-50 87 50 87h100z"/>
  </g>
  <g>
    <path fill="#828CA4" stroke="#000" d="m850 435-50-87H700l-50 87 50 87h100z"/>
  </g>
  <g>
    <path fill="#E8EDF9" stroke="#000" d="m850 262-50-87H700l-50 87 50 87h100z"/>
  </g>
  <g>
    <path fill="#B9C2DA" stroke="#000" d="M850 89 800 2H700l-50 87 50 87h100z"/>
  </g>
  <g>
    <path fill="#828CA4" stroke="#000" d="m850-84-50-87H700l-50 87 50 87h100z"/>
  </g>
  <g>
    <path fill="#E8EDF9" stroke="#000" d="m850-257-50-87H700l-50 87 50 87h100z"/>
  </g>
  <g>
    <path fill="#B9C2DA" stroke="#000" d="m850-430-50-87H700l-50 87 50 87h100z"/>
  </g>
  <g>
    <path fill="#E8EDF9" stroke="#000" d="m700-517-50-87H550l-50 87 50 87h100z"/>
  </g>
  <g>
    <path fill="#828CA4" stroke="#000" d="m550-604-50-87H400l-50 87 50 87h100z"/>
  </g>
  <g>
    <path fill="#B9C2DA" stroke="#000" d="m400-691-50-87H250l-50 87 50 87h100z"/>
  </g>
  <g>
    <path fill="#E8EDF9" stroke="#000" d="m250-778-50-87H100l-50 87 50 87h100z"/>
  </g>
  <g>
    <path fill="#828CA4" stroke="#000" d="m100-865-50-87H-50l-50 87 50 87H50z"/>
  </g>
  <g>
    <path fill="#E8EDF9" stroke="#000" d="m-50-778-50-87h-100l-50 87 50 87h100z"/>
  </g>
  <g>
    <path fill="#B9C2DA" stroke="#000" d="m-200-691-50-87h-100l-50 87 50 87h100z"/>
  </g>
  <g>
    <path fill="#828CA4" stroke="#000" d="m-350-604-50-87h-100l-50 87 50 87h100z"/>
  </g>
  <g>
    <path fill="#E8EDF9" stroke="#000" d="m-500-517-50-87h-100l-50 87 50 87h100z"/>
  </g>
  <g>
    <path fill="#B9C2DA" stroke="#000" d="m-650-430-50-87h-100l-50 87 50 87h100z"/>
  </g>
  <g>
    <path fill="#E8EDF9" stroke="#000" d="m-650-257-50-87h-100l-50 87 50 87h100z"/>
  </g>
  <g>
    <path fill="#828CA4" stroke="#000" d="m-650-84-50-87h-100l-50 87 50 87h100z"/>
  </g>
  <g>
    <path fill="#B9C2DA" stroke="#000" d="m-650 89-50-87h-100l-50 87 50 87h100z"/>
  </g>
  <g>
    <path fill="#E8EDF9" stroke="#000" d="m-650 262-50-87h-100l-50 87 50 87h100z"/>
  </g>
</svg>
