<svg xmlns="http://www.w3.org/2000/svg" viewBox="-862.5 -952.62794416 1725 1905.25588833" width="722.33502" height="811.0144">
  <g>
    <path stroke="#000" fill="#E8EDF9" d="M100 0 50-87H-50l-50 87 50 87H50z"/>
    <path fill="red" opacity=".15" d="M100 0 50-87H-50l-50 87 50 87H50z"/>
    <g>
      <g>
        <path d="M-36.225-52.325c0 1.987085.319585 3.898845.91034 5.68698l-3.973595 1.864035C-42.58243-48.18868-47.20566-50.3125-52.325-50.3125c-10.0032635 0-18.1125 8.10934-18.1125 18.1125 0 8.916985 6.4436225 16.328965 14.928495 17.833625L-45.9655 18.354c.19918.6831.48806 1.336645.85905 1.94373l5.50045 9.00059-.03381.00598c-3.845255.680225-6.64769 4.02201-6.64769 7.92695V52.325c0 4.4459 3.6041 8.05 8.05 8.05h76.62979c2.134975 0 4.18301-.84755 5.69181-2.3575 1.50995-1.50995 2.35865-3.55695 2.35865-5.6925V37.23125c0-3.909425-2.80945-7.253625-6.65988-7.92902l-.16192-.028405 5.4855-8.976095c.37145-.607085.6601-1.26063.85905-1.94373l9.54385-32.720375C63.99405-15.871035 70.4375-23.283015 70.4375-32.2c0-10.00316-8.1098-18.1125-18.1125-18.1125-5.12555 0-9.7543 2.129225-13.049165 5.551395l-3.96658-1.8607c.594205-1.792735.915745-3.71013.915745-5.703195 0-10.0032405-8.109225-18.112477-18.1125-18.112477S0-62.3282405 0-52.325c0-10.0032405-8.109225-18.112477-18.1125-18.112477S-36.225-62.3282405-36.225-52.325Z" fill="#34364C"/>
        <path d="M-14.500465-42.93019C-10.727545-44.38172-8.05-48.040675-8.05-52.325c0-5.557375-4.505125-10.0625-10.0625-10.0625S-28.175-57.882375-28.175-52.325c0 5.135555 3.847325 9.372615 8.816935 9.98614l-4.48753 36.30136-21.632535-18.788585c1.978115-1.83747 3.21563-4.461195 3.21563-7.373915 0-5.557375-4.505125-10.0625-10.0625-10.0625S-62.3875-37.757375-62.3875-32.2s4.505125 10.0625 10.0625 10.0625c.978305 0 1.92395-.13961 2.81819-.39997L-38.2375 16.1l11.65364 19.069645-11.65364 2.061605V52.325h76.62979V37.23125l-11.803255-2.070115L38.2375 16.1l11.26885-38.63747c.8947.26036 1.84.39997 2.81865.39997 5.5568 0 10.0625-4.505125 10.0625-10.0625S57.8818-42.2625 52.325-42.2625 42.2625-37.757375 42.2625-32.2c0 2.91272 1.2374 5.536445 3.2154 7.373915L23.845595-6.0375l-4.48753-36.30136c4.96961-.613525 8.816935-4.850585 8.816935-9.98614 0-5.557375-4.505125-10.0625-10.0625-10.0625S8.05-57.882375 8.05-52.325c0 4.284325 2.677545 7.94328 6.450465 9.39481L0-10.0625l-14.500465-32.86769Z" fill="#F4F7FA"/>
      </g>
    </g>
  </g>
  <g>
    <path stroke="#000" fill="#B9C2DA" d="m-50 87-50-87h-100l-50 87 50 87h100z"/>
    <path fill="#7B61FF" opacity=".35" d="m-50 87-50-87h-100l-50 87 50 87h100z"/>
  </g>
  <g>
    <path stroke="#000" fill="#828CA4" d="M100 174 50 87H-50l-50 87 50 87H50z"/>
    <path fill="#7B61FF" opacity=".35" d="M100 174 50 87H-50l-50 87 50 87H50z"/>
  </g>
  <g>
    <path stroke="#000" fill="#B9C2DA" d="M250 87 200 0H100L50 87l50 87h100z"/>
    <path fill="#7B61FF" opacity=".35" d="M250 87 200 0H100L50 87l50 87h100z"/>
  </g>
  <g>
    <path stroke="#000" fill="#828CA4" d="m250-86-50-87H100L50-86l50 87h100z"/>
    <path fill="#7B61FF" opacity=".35" d="m250-86-50-87H100L50-86l50 87h100z"/>
  </g>
  <g>
    <path stroke="#000" fill="#B9C2DA" d="m100-173-50-87H-50l-50 87 50 87H50z"/>
    <path fill="#7B61FF" opacity=".35" d="m100-173-50-87H-50l-50 87 50 87H50z"/>
  </g>
  <g>
    <path stroke="#000" fill="#828CA4" d="m-50-86-50-87h-100l-50 87 50 87h100z"/>
    <path fill="#7B61FF" opacity=".35" d="m-50-86-50-87h-100l-50 87 50 87h100z"/>
  </g>
  <g>
    <path stroke="#000" fill="#828CA4" d="m-200 174-50-87h-100l-50 87 50 87h100z"/>
    <path fill="#7B61FF" opacity=".35" d="m-200 174-50-87h-100l-50 87 50 87h100z"/>
  </g>
  <g>
    <path stroke="#000" fill="#E8EDF9" d="m-50 261-50-87h-100l-50 87 50 87h100z"/>
    <path fill="#7B61FF" opacity=".35" d="m-50 261-50-87h-100l-50 87 50 87h100z"/>
  </g>
  <g>
    <path stroke="#000" fill="#B9C2DA" d="m100 348-50-87H-50l-50 87 50 87H50z"/>
    <path fill="#7B61FF" opacity=".35" d="m100 348-50-87H-50l-50 87 50 87H50z"/>
  </g>
  <g>
    <path stroke="#000" fill="#E8EDF9" d="m250 261-50-87H100l-50 87 50 87h100z"/>
    <path fill="#7B61FF" opacity=".35" d="m250 261-50-87H100l-50 87 50 87h100z"/>
  </g>
  <g>
    <path stroke="#000" fill="#828CA4" d="m400 174-50-87H250l-50 87 50 87h100z"/>
    <path fill="#7B61FF" opacity=".35" d="m400 174-50-87H250l-50 87 50 87h100z"/>
  </g>
  <g>
    <path stroke="#000" fill="#E8EDF9" d="m400 1-50-87H250L200 1l50 87h100z"/>
    <path fill="#7B61FF" opacity=".35" d="m400 1-50-87H250L200 1l50 87h100z"/>
  </g>
  <g>
    <path stroke="#000" fill="#B9C2DA" d="m400-172-50-87H250l-50 87 50 87h100z"/>
    <path fill="#7B61FF" opacity=".35" d="m400-172-50-87H250l-50 87 50 87h100z"/>
  </g>
  <g>
    <path stroke="#000" fill="#E8EDF9" d="m250-259-50-87H100l-50 87 50 87h100z"/>
    <path fill="#7B61FF" opacity=".35" d="m250-259-50-87H100l-50 87 50 87h100z"/>
  </g>
  <g>
    <path stroke="#000" fill="#828CA4" d="m100-346-50-87H-50l-50 87 50 87H50z"/>
    <path fill="#7B61FF" opacity=".35" d="m100-346-50-87H-50l-50 87 50 87H50z"/>
  </g>
  <g>
    <path stroke="#000" fill="#E8EDF9" d="m-50-259-50-87h-100l-50 87 50 87h100z"/>
    <path fill="#7B61FF" opacity=".35" d="m-50-259-50-87h-100l-50 87 50 87h100z"/>
  </g>
  <g>
    <path stroke="#000" fill="#B9C2DA" d="m-200-172-50-87h-100l-50 87 50 87h100z"/>
    <path fill="#7B61FF" opacity=".35" d="m-200-172-50-87h-100l-50 87 50 87h100z"/>
  </g>
  <g>
    <path stroke="#000" fill="#E8EDF9" d="m-200 1-50-87h-100l-50 87 50 87h100z"/>
    <path fill="#7B61FF" opacity=".35" d="m-200 1-50-87h-100l-50 87 50 87h100z"/>
  </g>
  <g>
    <path stroke="#000" fill="#E8EDF9" d="m-350 261-50-87h-100l-50 87 50 87h100z"/>
    <path fill="#7B61FF" opacity=".35" d="m-350 261-50-87h-100l-50 87 50 87h100z"/>
  </g>
  <g>
    <path stroke="#000" fill="#B9C2DA" d="m-200 348-50-87h-100l-50 87 50 87h100z"/>
  </g>
  <g>
    <path stroke="#000" fill="#828CA4" d="m-50 435-50-87h-100l-50 87 50 87h100z"/>
  </g>
  <g>
    <path stroke="#000" fill="#E8EDF9" d="m100 522-50-87H-50l-50 87 50 87H50z"/>
    <path fill="#7B61FF" opacity=".35" d="m100 522-50-87H-50l-50 87 50 87H50z"/>
  </g>
  <g>
    <path stroke="#000" fill="#828CA4" d="m250 435-50-87H100l-50 87 50 87h100z"/>
  </g>
  <g>
    <path stroke="#000" fill="#B9C2DA" d="m400 348-50-87H250l-50 87 50 87h100z"/>
  </g>
  <g>
    <path stroke="#000" fill="#E8EDF9" d="m550 261-50-87H400l-50 87 50 87h100z"/>
    <path fill="#7B61FF" opacity=".35" d="m550 261-50-87H400l-50 87 50 87h100z"/>
  </g>
  <g>
    <path stroke="#000" fill="#B9C2DA" d="M550 88 500 1H400l-50 87 50 87h100z"/>
  </g>
  <g>
    <path stroke="#000" fill="#828CA4" d="m550-85-50-87H400l-50 87 50 87h100z"/>
  </g>
  <g>
    <path stroke="#000" fill="#E8EDF9" d="m550-258-50-87H400l-50 87 50 87h100z"/>
    <path fill="#7B61FF" opacity=".35" d="m550-258-50-87H400l-50 87 50 87h100z"/>
  </g>
  <g>
    <path stroke="#000" fill="#828CA4" d="m400-345-50-87H250l-50 87 50 87h100z"/>
  </g>
  <g>
    <path stroke="#000" fill="#B9C2DA" d="m250-432-50-87H100l-50 87 50 87h100z"/>
  </g>
  <g>
    <path stroke="#000" fill="#E8EDF9" d="m100-519-50-87H-50l-50 87 50 87H50z"/>
    <path fill="#7B61FF" opacity=".35" d="m100-519-50-87H-50l-50 87 50 87H50z"/>
  </g>
  <g>
    <path stroke="#000" fill="#B9C2DA" d="m-50-432-50-87h-100l-50 87 50 87h100z"/>
  </g>
  <g>
    <path stroke="#000" fill="#828CA4" d="m-200-345-50-87h-100l-50 87 50 87h100z"/>
  </g>
  <g>
    <path stroke="#000" fill="#E8EDF9" d="m-350-258-50-87h-100l-50 87 50 87h100z"/>
    <path fill="#7B61FF" opacity=".35" d="m-350-258-50-87h-100l-50 87 50 87h100z"/>
  </g>
  <g>
    <path stroke="#000" fill="#828CA4" d="m-350-85-50-87h-100l-50 87 50 87h100z"/>
  </g>
  <g>
    <path stroke="#000" fill="#B9C2DA" d="m-350 88-50-87h-100l-50 87 50 87h100z"/>
  </g>
  <g>
    <path stroke="#000" fill="#B9C2DA" d="m-500 348-50-87h-100l-50 87 50 87h100z"/>
    <path fill="#7B61FF" opacity=".35" d="m-500 348-50-87h-100l-50 87 50 87h100z"/>
  </g>
  <g>
    <path stroke="#000" fill="#828CA4" d="m-350 435-50-87h-100l-50 87 50 87h100z"/>
  </g>
  <g>
    <path stroke="#000" fill="#E8EDF9" d="m-200 522-50-87h-100l-50 87 50 87h100z"/>
    <path fill="#7B61FF" opacity=".35" d="m-200 522-50-87h-100l-50 87 50 87h100z"/>
  </g>
  <g>
    <path stroke="#000" fill="#B9C2DA" d="m-50 609-50-87h-100l-50 87 50 87h100z"/>
  </g>
  <g>
    <path stroke="#000" fill="#828CA4" d="m100 696-50-87H-50l-50 87 50 87H50z"/>
    <path fill="#7B61FF" opacity=".35" d="m100 696-50-87H-50l-50 87 50 87H50z"/>
  </g>
  <g>
    <path stroke="#000" fill="#B9C2DA" d="m250 609-50-87H100l-50 87 50 87h100z"/>
  </g>
  <g>
    <path stroke="#000" fill="#E8EDF9" d="m400 522-50-87H250l-50 87 50 87h100z"/>
    <path fill="#7B61FF" opacity=".35" d="m400 522-50-87H250l-50 87 50 87h100z"/>
  </g>
  <g>
    <path stroke="#000" fill="#828CA4" d="m550 435-50-87H400l-50 87 50 87h100z"/>
  </g>
  <g>
    <path stroke="#000" fill="#B9C2DA" d="m700 348-50-87H550l-50 87 50 87h100z"/>
    <path fill="#7B61FF" opacity=".35" d="m700 348-50-87H550l-50 87 50 87h100z"/>
  </g>
  <g>
    <path stroke="#000" fill="#828CA4" d="m700 175-50-87H550l-50 87 50 87h100z"/>
  </g>
  <g>
    <path stroke="#000" fill="#E8EDF9" d="m700 2-50-87H550L500 2l50 87h100z"/>
    <path fill="#7B61FF" opacity=".35" d="m700 2-50-87H550L500 2l50 87h100z"/>
  </g>
  <g>
    <path stroke="#000" fill="#B9C2DA" d="m700-171-50-87H550l-50 87 50 87h100z"/>
  </g>
  <g>
    <path stroke="#000" fill="#828CA4" d="m700-344-50-87H550l-50 87 50 87h100z"/>
    <path fill="#7B61FF" opacity=".35" d="m700-344-50-87H550l-50 87 50 87h100z"/>
  </g>
  <g>
    <path stroke="#000" fill="#B9C2DA" d="m550-431-50-87H400l-50 87 50 87h100z"/>
  </g>
  <g>
    <path stroke="#000" fill="#E8EDF9" d="m400-518-50-87H250l-50 87 50 87h100z"/>
    <path fill="#7B61FF" opacity=".35" d="m400-518-50-87H250l-50 87 50 87h100z"/>
  </g>
  <g>
    <path stroke="#000" fill="#828CA4" d="m250-605-50-87H100l-50 87 50 87h100z"/>
  </g>
  <g>
    <path stroke="#000" fill="#B9C2DA" d="m100-692-50-87H-50l-50 87 50 87H50z"/>
    <path fill="#7B61FF" opacity=".35" d="m100-692-50-87H-50l-50 87 50 87H50z"/>
  </g>
  <g>
    <path stroke="#000" fill="#828CA4" d="m-50-605-50-87h-100l-50 87 50 87h100z"/>
  </g>
  <g>
    <path stroke="#000" fill="#E8EDF9" d="m-200-518-50-87h-100l-50 87 50 87h100z"/>
    <path fill="#7B61FF" opacity=".35" d="m-200-518-50-87h-100l-50 87 50 87h100z"/>
  </g>
  <g>
    <path stroke="#000" fill="#B9C2DA" d="m-350-431-50-87h-100l-50 87 50 87h100z"/>
  </g>
  <g>
    <path stroke="#000" fill="#828CA4" d="m-500-344-50-87h-100l-50 87 50 87h100z"/>
    <path fill="#7B61FF" opacity=".35" d="m-500-344-50-87h-100l-50 87 50 87h100z"/>
  </g>
  <g>
    <path stroke="#000" fill="#B9C2DA" d="m-500-171-50-87h-100l-50 87 50 87h100z"/>
  </g>
  <g>
    <path stroke="#000" fill="#E8EDF9" d="m-500 2-50-87h-100l-50 87 50 87h100z"/>
    <path fill="#7B61FF" opacity=".35" d="m-500 2-50-87h-100l-50 87 50 87h100z"/>
  </g>
  <g>
    <path stroke="#000" fill="#828CA4" d="m-500 175-50-87h-100l-50 87 50 87h100z"/>
  </g>
  <g>
    <path stroke="#000" fill="#828CA4" d="m-650 435-50-87h-100l-50 87 50 87h100z"/>
    <path fill="#7B61FF" opacity=".35" d="m-650 435-50-87h-100l-50 87 50 87h100z"/>
  </g>
  <g>
    <path stroke="#000" fill="#E8EDF9" d="m-500 522-50-87h-100l-50 87 50 87h100z"/>
  </g>
  <g>
    <path stroke="#000" fill="#B9C2DA" d="m-350 609-50-87h-100l-50 87 50 87h100z"/>
  </g>
  <g>
    <path stroke="#000" fill="#828CA4" d="m-200 696-50-87h-100l-50 87 50 87h100z"/>
  </g>
  <g>
    <path stroke="#000" fill="#E8EDF9" d="m-50 783-50-87h-100l-50 87 50 87h100z"/>
  </g>
  <g>
    <path stroke="#000" fill="#B9C2DA" d="m100 870-50-87H-50l-50 87 50 87H50z"/>
    <path fill="#7B61FF" opacity=".35" d="m100 870-50-87H-50l-50 87 50 87H50z"/>
  </g>
  <g>
    <path stroke="#000" fill="#E8EDF9" d="m250 783-50-87H100l-50 87 50 87h100z"/>
  </g>
  <g>
    <path stroke="#000" fill="#828CA4" d="m400 696-50-87H250l-50 87 50 87h100z"/>
  </g>
  <g>
    <path stroke="#000" fill="#B9C2DA" d="m550 609-50-87H400l-50 87 50 87h100z"/>
  </g>
  <g>
    <path stroke="#000" fill="#E8EDF9" d="m700 522-50-87H550l-50 87 50 87h100z"/>
  </g>
  <g>
    <path stroke="#000" fill="#828CA4" d="m850 435-50-87H700l-50 87 50 87h100z"/>
    <path fill="#7B61FF" opacity=".35" d="m850 435-50-87H700l-50 87 50 87h100z"/>
  </g>
  <g>
    <path stroke="#000" fill="#E8EDF9" d="m850 262-50-87H700l-50 87 50 87h100z"/>
  </g>
  <g>
    <path stroke="#000" fill="#B9C2DA" d="M850 89 800 2H700l-50 87 50 87h100z"/>
  </g>
  <g>
    <path stroke="#000" fill="#828CA4" d="m850-84-50-87H700l-50 87 50 87h100z"/>
  </g>
  <g>
    <path stroke="#000" fill="#E8EDF9" d="m850-257-50-87H700l-50 87 50 87h100z"/>
  </g>
  <g>
    <path stroke="#000" fill="#B9C2DA" d="m850-430-50-87H700l-50 87 50 87h100z"/>
    <path fill="#7B61FF" opacity=".35" d="m850-430-50-87H700l-50 87 50 87h100z"/>
  </g>
  <g>
    <path stroke="#000" fill="#E8EDF9" d="m700-517-50-87H550l-50 87 50 87h100z"/>
  </g>
  <g>
    <path stroke="#000" fill="#828CA4" d="m550-604-50-87H400l-50 87 50 87h100z"/>
  </g>
  <g>
    <path stroke="#000" fill="#B9C2DA" d="m400-691-50-87H250l-50 87 50 87h100z"/>
  </g>
  <g>
    <path stroke="#000" fill="#E8EDF9" d="m250-778-50-87H100l-50 87 50 87h100z"/>
  </g>
  <g>
    <path stroke="#000" fill="#828CA4" d="m100-865-50-87H-50l-50 87 50 87H50z"/>
    <path fill="#7B61FF" opacity=".35" d="m100-865-50-87H-50l-50 87 50 87H50z"/>
  </g>
  <g>
    <path stroke="#000" fill="#E8EDF9" d="m-50-778-50-87h-100l-50 87 50 87h100z"/>
  </g>
  <g>
    <path stroke="#000" fill="#B9C2DA" d="m-200-691-50-87h-100l-50 87 50 87h100z"/>
  </g>
  <g>
    <path stroke="#000" fill="#828CA4" d="m-350-604-50-87h-100l-50 87 50 87h100z"/>
  </g>
  <g>
    <path stroke="#000" fill="#E8EDF9" d="m-500-517-50-87h-100l-50 87 50 87h100z"/>
  </g>
  <g>
    <path stroke="#000" fill="#B9C2DA" d="m-650-430-50-87h-100l-50 87 50 87h100z"/>
    <path fill="#7B61FF" opacity=".35" d="m-650-430-50-87h-100l-50 87 50 87h100z"/>
  </g>
  <g>
    <path stroke="#000" fill="#E8EDF9" d="m-650-257-50-87h-100l-50 87 50 87h100z"/>
  </g>
  <g>
    <path stroke="#000" fill="#828CA4" d="m-650-84-50-87h-100l-50 87 50 87h100z"/>
  </g>
  <g>
    <path stroke="#000" fill="#B9C2DA" d="m-650 89-50-87h-100l-50 87 50 87h100z"/>
  </g>
  <g>
    <path stroke="#000" fill="#E8EDF9" d="m-650 262-50-87h-100l-50 87 50 87h100z"/>
  </g>
</svg>
