<svg xmlns="http://www.w3.org/2000/svg" viewBox="-862.5 -952.62794416 1725 1905.25588833" width="722.33502" height="811.0144">
  <g>
    <path fill="#E8EDF9" stroke="#000" d="M100 0 50-87H-50l-50 87 50 87H50z"/>
    <path fill="red" d="M100 0 50-87H-50l-50 87 50 87H50z" opacity=".15"/>
    <g>
      <g>
        <path fill="#34364C" d="M-20.125-62.3875c1.46625 0 2.84096.392012 4.025 1.076952 1.18404-.68494 2.55875-1.076952 4.025-1.076952h22.1375c1.46625 0 2.84096.392012 4.025 1.076952 1.18404-.68494 2.55875-1.076952 4.025-1.076952h20.125c4.4459 0 8.05 3.6041 8.05 8.05v18.1125c0 2.533795-1.19255 4.9197-3.22 6.44l-12.421495 9.316035L34.16328 11.18605c.931155 8.380625 4.831955 12.63252 10.51422 20.20895 1.04535 1.393455 1.61 3.08821 1.61 4.83v16.1c0 4.4459-3.6041 8.05-8.05 8.05H-40.25c-4.4459 0-8.05-3.6041-8.05-8.05v-16.1c0-1.74179.56488-3.436545 1.61-4.83 5.682265-7.57643 9.583065-11.828325 10.51422-20.20895l3.517275-31.655015L-45.08-29.785c-2.02699-1.5203-3.22-3.906205-3.22-6.44v-18.1125c0-4.4459 3.6041-8.05 8.05-8.05h20.125Z"/>
        <path fill="#F4F7FA" d="M-40.25-54.3375h20.125v12.075h8.05v-12.075h22.1375v12.075h8.05v-12.075h20.125v18.1125l-16.1 12.075 4.025 36.225H-28.175l4.025-36.225-16.1-12.075v-18.1125Zm12.075 74.4625h54.3375l12.075 16.1v16.1H-40.25v-16.1l12.075-16.1Z"/>
      </g>
    </g>
  </g>
  <g>
    <path fill="#B9C2DA" stroke="#000" d="m-50 87-50-87h-100l-50 87 50 87h100z"/>
    <path fill="#7B61FF" d="m-50 87-50-87h-100l-50 87 50 87h100z" opacity=".35"/>
  </g>
  <g>
    <path fill="#828CA4" stroke="#000" d="M100 174 50 87H-50l-50 87 50 87H50z"/>
    <path fill="#7B61FF" d="M100 174 50 87H-50l-50 87 50 87H50z" opacity=".35"/>
  </g>
  <g>
    <path fill="#B9C2DA" stroke="#000" d="M250 87 200 0H100L50 87l50 87h100z"/>
    <path fill="#7B61FF" d="M250 87 200 0H100L50 87l50 87h100z" opacity=".35"/>
  </g>
  <g>
    <path fill="#828CA4" stroke="#000" d="m250-86-50-87H100L50-86l50 87h100z"/>
    <path fill="#7B61FF" d="m250-86-50-87H100L50-86l50 87h100z" opacity=".35"/>
  </g>
  <g>
    <path fill="#B9C2DA" stroke="#000" d="m100-173-50-87H-50l-50 87 50 87H50z"/>
    <path fill="#7B61FF" d="m100-173-50-87H-50l-50 87 50 87H50z" opacity=".35"/>
  </g>
  <g>
    <path fill="#828CA4" stroke="#000" d="m-50-86-50-87h-100l-50 87 50 87h100z"/>
    <path fill="#7B61FF" d="m-50-86-50-87h-100l-50 87 50 87h100z" opacity=".35"/>
  </g>
  <g>
    <path fill="#828CA4" stroke="#000" d="m-200 174-50-87h-100l-50 87 50 87h100z"/>
    <path fill="#7B61FF" d="m-200 174-50-87h-100l-50 87 50 87h100z" opacity=".35"/>
  </g>
  <g>
    <path fill="#E8EDF9" stroke="#000" d="m-50 261-50-87h-100l-50 87 50 87h100z"/>
  </g>
  <g>
    <path fill="#B9C2DA" stroke="#000" d="m100 348-50-87H-50l-50 87 50 87H50z"/>
    <path fill="#7B61FF" d="m100 348-50-87H-50l-50 87 50 87H50z" opacity=".35"/>
  </g>
  <g>
    <path fill="#E8EDF9" stroke="#000" d="m250 261-50-87H100l-50 87 50 87h100z"/>
  </g>
  <g>
    <path fill="#828CA4" stroke="#000" d="m400 174-50-87H250l-50 87 50 87h100z"/>
    <path fill="#7B61FF" d="m400 174-50-87H250l-50 87 50 87h100z" opacity=".35"/>
  </g>
  <g>
    <path fill="#E8EDF9" stroke="#000" d="m400 1-50-87H250L200 1l50 87h100z"/>
  </g>
  <g>
    <path fill="#B9C2DA" stroke="#000" d="m400-172-50-87H250l-50 87 50 87h100z"/>
    <path fill="#7B61FF" d="m400-172-50-87H250l-50 87 50 87h100z" opacity=".35"/>
  </g>
  <g>
    <path fill="#E8EDF9" stroke="#000" d="m250-259-50-87H100l-50 87 50 87h100z"/>
  </g>
  <g>
    <path fill="#828CA4" stroke="#000" d="m100-346-50-87H-50l-50 87 50 87H50z"/>
    <path fill="#7B61FF" d="m100-346-50-87H-50l-50 87 50 87H50z" opacity=".35"/>
  </g>
  <g>
    <path fill="#E8EDF9" stroke="#000" d="m-50-259-50-87h-100l-50 87 50 87h100z"/>
  </g>
  <g>
    <path fill="#B9C2DA" stroke="#000" d="m-200-172-50-87h-100l-50 87 50 87h100z"/>
    <path fill="#7B61FF" d="m-200-172-50-87h-100l-50 87 50 87h100z" opacity=".35"/>
  </g>
  <g>
    <path fill="#E8EDF9" stroke="#000" d="m-200 1-50-87h-100l-50 87 50 87h100z"/>
  </g>
  <g>
    <path fill="#E8EDF9" stroke="#000" d="m-350 261-50-87h-100l-50 87 50 87h100z"/>
    <path fill="#7B61FF" d="m-350 261-50-87h-100l-50 87 50 87h100z" opacity=".35"/>
  </g>
  <g>
    <path fill="#B9C2DA" stroke="#000" d="m-200 348-50-87h-100l-50 87 50 87h100z"/>
  </g>
  <g>
    <path fill="#828CA4" stroke="#000" d="m-50 435-50-87h-100l-50 87 50 87h100z"/>
  </g>
  <g>
    <path fill="#E8EDF9" stroke="#000" d="m100 522-50-87H-50l-50 87 50 87H50z"/>
    <path fill="#7B61FF" d="m100 522-50-87H-50l-50 87 50 87H50z" opacity=".35"/>
  </g>
  <g>
    <path fill="#828CA4" stroke="#000" d="m250 435-50-87H100l-50 87 50 87h100z"/>
  </g>
  <g>
    <path fill="#B9C2DA" stroke="#000" d="m400 348-50-87H250l-50 87 50 87h100z"/>
  </g>
  <g>
    <path fill="#E8EDF9" stroke="#000" d="m550 261-50-87H400l-50 87 50 87h100z"/>
    <path fill="#7B61FF" d="m550 261-50-87H400l-50 87 50 87h100z" opacity=".35"/>
  </g>
  <g>
    <path fill="#B9C2DA" stroke="#000" d="M550 88 500 1H400l-50 87 50 87h100z"/>
  </g>
  <g>
    <path fill="#828CA4" stroke="#000" d="m550-85-50-87H400l-50 87 50 87h100z"/>
  </g>
  <g>
    <path fill="#E8EDF9" stroke="#000" d="m550-258-50-87H400l-50 87 50 87h100z"/>
    <path fill="#7B61FF" d="m550-258-50-87H400l-50 87 50 87h100z" opacity=".35"/>
  </g>
  <g>
    <path fill="#828CA4" stroke="#000" d="m400-345-50-87H250l-50 87 50 87h100z"/>
  </g>
  <g>
    <path fill="#B9C2DA" stroke="#000" d="m250-432-50-87H100l-50 87 50 87h100z"/>
  </g>
  <g>
    <path fill="#E8EDF9" stroke="#000" d="m100-519-50-87H-50l-50 87 50 87H50z"/>
    <path fill="#7B61FF" d="m100-519-50-87H-50l-50 87 50 87H50z" opacity=".35"/>
  </g>
  <g>
    <path fill="#B9C2DA" stroke="#000" d="m-50-432-50-87h-100l-50 87 50 87h100z"/>
  </g>
  <g>
    <path fill="#828CA4" stroke="#000" d="m-200-345-50-87h-100l-50 87 50 87h100z"/>
  </g>
  <g>
    <path fill="#E8EDF9" stroke="#000" d="m-350-258-50-87h-100l-50 87 50 87h100z"/>
    <path fill="#7B61FF" d="m-350-258-50-87h-100l-50 87 50 87h100z" opacity=".35"/>
  </g>
  <g>
    <path fill="#828CA4" stroke="#000" d="m-350-85-50-87h-100l-50 87 50 87h100z"/>
  </g>
  <g>
    <path fill="#B9C2DA" stroke="#000" d="m-350 88-50-87h-100l-50 87 50 87h100z"/>
  </g>
  <g>
    <path fill="#B9C2DA" stroke="#000" d="m-500 348-50-87h-100l-50 87 50 87h100z"/>
    <path fill="#7B61FF" d="m-500 348-50-87h-100l-50 87 50 87h100z" opacity=".35"/>
  </g>
  <g>
    <path fill="#828CA4" stroke="#000" d="m-350 435-50-87h-100l-50 87 50 87h100z"/>
  </g>
  <g>
    <path fill="#E8EDF9" stroke="#000" d="m-200 522-50-87h-100l-50 87 50 87h100z"/>
  </g>
  <g>
    <path fill="#B9C2DA" stroke="#000" d="m-50 609-50-87h-100l-50 87 50 87h100z"/>
  </g>
  <g>
    <path fill="#828CA4" stroke="#000" d="m100 696-50-87H-50l-50 87 50 87H50z"/>
    <path fill="#7B61FF" d="m100 696-50-87H-50l-50 87 50 87H50z" opacity=".35"/>
  </g>
  <g>
    <path fill="#B9C2DA" stroke="#000" d="m250 609-50-87H100l-50 87 50 87h100z"/>
  </g>
  <g>
    <path fill="#E8EDF9" stroke="#000" d="m400 522-50-87H250l-50 87 50 87h100z"/>
  </g>
  <g>
    <path fill="#828CA4" stroke="#000" d="m550 435-50-87H400l-50 87 50 87h100z"/>
  </g>
  <g>
    <path fill="#B9C2DA" stroke="#000" d="m700 348-50-87H550l-50 87 50 87h100z"/>
    <path fill="#7B61FF" d="m700 348-50-87H550l-50 87 50 87h100z" opacity=".35"/>
  </g>
  <g>
    <path fill="#828CA4" stroke="#000" d="m700 175-50-87H550l-50 87 50 87h100z"/>
  </g>
  <g>
    <path fill="#E8EDF9" stroke="#000" d="m700 2-50-87H550L500 2l50 87h100z"/>
  </g>
  <g>
    <path fill="#B9C2DA" stroke="#000" d="m700-171-50-87H550l-50 87 50 87h100z"/>
  </g>
  <g>
    <path fill="#828CA4" stroke="#000" d="m700-344-50-87H550l-50 87 50 87h100z"/>
    <path fill="#7B61FF" d="m700-344-50-87H550l-50 87 50 87h100z" opacity=".35"/>
  </g>
  <g>
    <path fill="#B9C2DA" stroke="#000" d="m550-431-50-87H400l-50 87 50 87h100z"/>
  </g>
  <g>
    <path fill="#E8EDF9" stroke="#000" d="m400-518-50-87H250l-50 87 50 87h100z"/>
  </g>
  <g>
    <path fill="#828CA4" stroke="#000" d="m250-605-50-87H100l-50 87 50 87h100z"/>
  </g>
  <g>
    <path fill="#B9C2DA" stroke="#000" d="m100-692-50-87H-50l-50 87 50 87H50z"/>
    <path fill="#7B61FF" d="m100-692-50-87H-50l-50 87 50 87H50z" opacity=".35"/>
  </g>
  <g>
    <path fill="#828CA4" stroke="#000" d="m-50-605-50-87h-100l-50 87 50 87h100z"/>
  </g>
  <g>
    <path fill="#E8EDF9" stroke="#000" d="m-200-518-50-87h-100l-50 87 50 87h100z"/>
  </g>
  <g>
    <path fill="#B9C2DA" stroke="#000" d="m-350-431-50-87h-100l-50 87 50 87h100z"/>
  </g>
  <g>
    <path fill="#828CA4" stroke="#000" d="m-500-344-50-87h-100l-50 87 50 87h100z"/>
    <path fill="#7B61FF" d="m-500-344-50-87h-100l-50 87 50 87h100z" opacity=".35"/>
  </g>
  <g>
    <path fill="#B9C2DA" stroke="#000" d="m-500-171-50-87h-100l-50 87 50 87h100z"/>
  </g>
  <g>
    <path fill="#E8EDF9" stroke="#000" d="m-500 2-50-87h-100l-50 87 50 87h100z"/>
  </g>
  <g>
    <path fill="#828CA4" stroke="#000" d="m-500 175-50-87h-100l-50 87 50 87h100z"/>
  </g>
  <g>
    <path fill="#828CA4" stroke="#000" d="m-650 435-50-87h-100l-50 87 50 87h100z"/>
    <path fill="#7B61FF" d="m-650 435-50-87h-100l-50 87 50 87h100z" opacity=".35"/>
  </g>
  <g>
    <path fill="#E8EDF9" stroke="#000" d="m-500 522-50-87h-100l-50 87 50 87h100z"/>
  </g>
  <g>
    <path fill="#B9C2DA" stroke="#000" d="m-350 609-50-87h-100l-50 87 50 87h100z"/>
  </g>
  <g>
    <path fill="#828CA4" stroke="#000" d="m-200 696-50-87h-100l-50 87 50 87h100z"/>
  </g>
  <g>
    <path fill="#E8EDF9" stroke="#000" d="m-50 783-50-87h-100l-50 87 50 87h100z"/>
  </g>
  <g>
    <path fill="#B9C2DA" stroke="#000" d="m100 870-50-87H-50l-50 87 50 87H50z"/>
    <path fill="#7B61FF" d="m100 870-50-87H-50l-50 87 50 87H50z" opacity=".35"/>
  </g>
  <g>
    <path fill="#E8EDF9" stroke="#000" d="m250 783-50-87H100l-50 87 50 87h100z"/>
  </g>
  <g>
    <path fill="#828CA4" stroke="#000" d="m400 696-50-87H250l-50 87 50 87h100z"/>
  </g>
  <g>
    <path fill="#B9C2DA" stroke="#000" d="m550 609-50-87H400l-50 87 50 87h100z"/>
  </g>
  <g>
    <path fill="#E8EDF9" stroke="#000" d="m700 522-50-87H550l-50 87 50 87h100z"/>
  </g>
  <g>
    <path fill="#828CA4" stroke="#000" d="m850 435-50-87H700l-50 87 50 87h100z"/>
    <path fill="#7B61FF" d="m850 435-50-87H700l-50 87 50 87h100z" opacity=".35"/>
  </g>
  <g>
    <path fill="#E8EDF9" stroke="#000" d="m850 262-50-87H700l-50 87 50 87h100z"/>
  </g>
  <g>
    <path fill="#B9C2DA" stroke="#000" d="M850 89 800 2H700l-50 87 50 87h100z"/>
  </g>
  <g>
    <path fill="#828CA4" stroke="#000" d="m850-84-50-87H700l-50 87 50 87h100z"/>
  </g>
  <g>
    <path fill="#E8EDF9" stroke="#000" d="m850-257-50-87H700l-50 87 50 87h100z"/>
  </g>
  <g>
    <path fill="#B9C2DA" stroke="#000" d="m850-430-50-87H700l-50 87 50 87h100z"/>
    <path fill="#7B61FF" d="m850-430-50-87H700l-50 87 50 87h100z" opacity=".35"/>
  </g>
  <g>
    <path fill="#E8EDF9" stroke="#000" d="m700-517-50-87H550l-50 87 50 87h100z"/>
  </g>
  <g>
    <path fill="#828CA4" stroke="#000" d="m550-604-50-87H400l-50 87 50 87h100z"/>
  </g>
  <g>
    <path fill="#B9C2DA" stroke="#000" d="m400-691-50-87H250l-50 87 50 87h100z"/>
  </g>
  <g>
    <path fill="#E8EDF9" stroke="#000" d="m250-778-50-87H100l-50 87 50 87h100z"/>
  </g>
  <g>
    <path fill="#828CA4" stroke="#000" d="m100-865-50-87H-50l-50 87 50 87H50z"/>
    <path fill="#7B61FF" d="m100-865-50-87H-50l-50 87 50 87H50z" opacity=".35"/>
  </g>
  <g>
    <path fill="#E8EDF9" stroke="#000" d="m-50-778-50-87h-100l-50 87 50 87h100z"/>
  </g>
  <g>
    <path fill="#B9C2DA" stroke="#000" d="m-200-691-50-87h-100l-50 87 50 87h100z"/>
  </g>
  <g>
    <path fill="#828CA4" stroke="#000" d="m-350-604-50-87h-100l-50 87 50 87h100z"/>
  </g>
  <g>
    <path fill="#E8EDF9" stroke="#000" d="m-500-517-50-87h-100l-50 87 50 87h100z"/>
  </g>
  <g>
    <path fill="#B9C2DA" stroke="#000" d="m-650-430-50-87h-100l-50 87 50 87h100z"/>
    <path fill="#7B61FF" d="m-650-430-50-87h-100l-50 87 50 87h100z" opacity=".35"/>
  </g>
  <g>
    <path fill="#E8EDF9" stroke="#000" d="m-650-257-50-87h-100l-50 87 50 87h100z"/>
  </g>
  <g>
    <path fill="#828CA4" stroke="#000" d="m-650-84-50-87h-100l-50 87 50 87h100z"/>
  </g>
  <g>
    <path fill="#B9C2DA" stroke="#000" d="m-650 89-50-87h-100l-50 87 50 87h100z"/>
  </g>
  <g>
    <path fill="#E8EDF9" stroke="#000" d="m-650 262-50-87h-100l-50 87 50 87h100z"/>
  </g>
</svg>
